<svg width="268" height="293" viewBox="0 0 268 293" fill="none" xmlns="http://www.w3.org/2000/svg">
<g opacity="0.15">
<path opacity="0.15" d="M1.57719 258.664L45.7113 283.403C47.6359 284.534 51.087 284.401 53.3435 283.071L68.0106 274.292C70.267 272.962 70.5325 270.967 68.5415 269.837L24.6065 244.566C22.6819 243.435 19.2308 243.568 16.9743 244.898L2.10811 254.142C-0.148369 255.539 -0.413826 257.534 1.57719 258.664Z" fill="#BDCEFA"/>
<path opacity="0.15" d="M19.8943 237.052L64.0284 261.791C65.953 262.921 69.4041 262.788 71.6606 261.458L86.3277 252.68C88.5842 251.35 88.8497 249.355 86.8586 248.224L42.9236 222.954C40.999 221.823 37.5479 221.956 35.2914 223.286L20.4252 232.53C18.2351 233.926 17.9696 235.922 19.8943 237.052Z" fill="#BDCEFA"/>
<path opacity="0.15" d="M9.3418 200.476L142.474 274.891C148.381 278.283 158.734 277.884 165.57 273.96L243.153 229.071C249.989 225.148 250.719 219.096 244.812 215.705L111.68 141.289C105.773 137.898 95.4199 138.297 88.5841 142.22L11.001 187.109C4.23154 191.099 3.43513 197.084 9.3418 200.476Z" fill="#BDCEFA"/>
</g>
<path d="M266.182 100.524C266.912 100.524 267.775 99.9251 267.775 98.9276V65.6102C267.775 65.0782 267.443 64.5461 266.978 64.2801L226.959 41.1375C226.694 41.0045 226.428 40.938 226.163 40.938C225.433 40.938 224.57 41.5365 224.57 42.534V75.8514C224.57 76.3835 224.902 76.9155 225.366 77.1815L265.386 100.324C265.651 100.457 265.917 100.524 266.182 100.524Z" fill="url(#paint0_linear_914_429)"/>
<path d="M236.317 148.937C237.91 148.937 239.702 147.674 239.702 145.546V74.2557C239.702 73.0586 239.038 71.9281 238.043 71.3296L152.429 21.8522C151.898 21.5197 151.367 21.3867 150.77 21.3867C149.177 21.3867 147.385 22.6503 147.385 24.7783V96.1348C147.385 97.3318 148.049 98.4623 149.044 99.0609L234.658 148.472C235.189 148.804 235.72 148.937 236.317 148.937Z" fill="url(#paint1_linear_914_429)"/>
<path d="M168.888 53.6399C169.551 53.6399 170.281 53.1079 170.281 52.2434V22.7166C170.281 22.2511 170.016 21.7856 169.618 21.5196L134.178 0.970502C133.979 0.837499 133.713 0.770996 133.514 0.770996C132.85 0.770996 132.12 1.30301 132.12 2.16753V31.6943C132.12 32.1599 132.386 32.6254 132.784 32.8914L168.224 53.3739C168.423 53.5734 168.689 53.6399 168.888 53.6399Z" fill="url(#paint2_linear_914_429)"/>
<path d="M251.581 171.082C252.245 171.082 252.975 170.55 252.975 169.686V140.159C252.975 139.693 252.71 139.228 252.311 138.962L216.871 118.479C216.672 118.346 216.407 118.28 216.208 118.28C215.544 118.28 214.814 118.812 214.814 119.676V149.203C214.814 149.669 215.079 150.134 215.478 150.4L250.918 170.883C251.117 171.016 251.382 171.082 251.581 171.082Z" fill="url(#paint3_linear_914_429)"/>
<path d="M153.744 60.5366C152.836 59.0261 152.814 57.3717 153.693 56.8414C154.572 56.311 156.021 57.1056 156.928 58.6161C157.835 60.1266 157.858 61.781 156.979 62.3113C156.099 62.8417 154.651 62.0471 153.744 60.5366Z" fill="#BDCEFA"/>
<path d="M145.129 53.6399C145.129 55.0364 146.124 56.832 147.385 57.497C148.646 58.2285 149.642 57.63 149.642 56.2334C149.642 54.8369 148.646 53.0414 147.385 52.3763C146.124 51.6448 145.129 52.2433 145.129 53.6399Z" fill="#BDCEFA"/>
<path d="M137.098 49.0512C137.098 50.4477 138.094 52.2433 139.355 52.9083C140.616 53.5733 141.611 53.0413 141.611 51.6447C141.611 50.2482 140.616 48.4526 139.355 47.7876C138.16 47.0561 137.098 47.5881 137.098 49.0512Z" fill="#BDCEFA"/>
<path d="M199.218 55.6348L189.396 58.3614C189.064 58.4279 188.599 58.1619 188.334 57.7628L178.511 43.731L199.218 55.6348Z" fill="#BDCEFA"/>
<path d="M192.249 58.5609L199.085 69.8662C199.218 69.7332 199.284 69.5337 199.284 69.2677V56.6323L192.249 58.5609Z" fill="#BDCEFA"/>
<path d="M186.077 55.5684L179.175 59.0265C179.374 59.226 179.573 59.4255 179.839 59.5585L197.758 69.9328C197.957 70.0658 198.156 70.1323 198.355 70.1323L191.519 58.7604L188.798 59.492L186.077 55.5684Z" fill="#BDCEFA"/>
<path d="M178.445 44.5952V57.2306C178.445 57.4966 178.511 57.7626 178.644 58.0286L185.413 54.5705L178.445 44.5952Z" fill="#BDCEFA"/>
<path d="M109.754 61.62C109.821 61.62 109.887 61.5535 109.887 61.487V12.6082L176.321 51.1127C176.387 51.1792 176.52 51.1127 176.52 51.0462C176.586 50.9797 176.52 50.8467 176.453 50.8467L109.555 12.0762V61.5535C109.555 61.5535 109.622 61.62 109.754 61.62Z" fill="#BDCEFA"/>
<path d="M105.308 61.8198C105.508 61.8198 105.64 61.6867 105.64 61.4871V61.4206C105.64 61.221 105.508 61.0879 105.308 61.0879C105.109 61.0879 104.976 61.221 104.976 61.4206C104.976 61.6867 105.109 61.8198 105.308 61.8198Z" fill="#BDCEFA"/>
<path d="M105.309 59.2919C105.508 59.2919 105.64 59.1589 105.64 58.9594V58.8929C105.64 58.6933 105.508 58.5603 105.309 58.5603C105.109 58.5603 104.977 58.6933 104.977 58.8929C104.977 59.0924 105.109 59.2919 105.309 59.2919ZM105.309 56.6983C105.508 56.6983 105.64 56.5653 105.64 56.3658V56.2993C105.64 56.0998 105.508 55.9668 105.309 55.9668C105.109 55.9668 104.977 56.0998 104.977 56.2993C104.977 56.4988 105.109 56.6983 105.309 56.6983ZM105.309 54.1047C105.508 54.1047 105.64 53.9717 105.64 53.7722C105.64 53.5727 105.508 53.4397 105.309 53.4397C105.109 53.4397 104.977 53.5727 104.977 53.7722C104.977 53.9052 105.109 54.1047 105.309 54.1047ZM105.309 51.5112C105.508 51.5112 105.64 51.3782 105.64 51.1786V51.1121C105.64 50.9126 105.508 50.7796 105.309 50.7796C105.109 50.7796 104.977 50.9126 104.977 51.1121C104.977 51.3782 105.109 51.5112 105.309 51.5112ZM105.309 48.9841C105.508 48.9841 105.64 48.8511 105.64 48.6516V48.5851C105.64 48.3856 105.508 48.2526 105.309 48.2526C105.109 48.2526 104.977 48.3856 104.977 48.5851C104.977 48.7846 105.109 48.9841 105.309 48.9841ZM105.309 46.3905C105.508 46.3905 105.64 46.2575 105.64 46.058V45.9915C105.64 45.792 105.508 45.659 105.309 45.659C105.109 45.659 104.977 45.792 104.977 45.9915C104.977 46.191 105.109 46.3905 105.309 46.3905ZM105.309 43.7969C105.508 43.7969 105.64 43.6639 105.64 43.4644V43.3979C105.64 43.1984 105.508 43.0654 105.309 43.0654C105.109 43.0654 104.977 43.1984 104.977 43.3979C104.977 43.5974 105.109 43.7969 105.309 43.7969Z" fill="#BDCEFA"/>
<path d="M105.308 41.2704C105.441 41.2704 105.507 41.2039 105.574 41.1374C105.574 41.1374 105.574 41.1374 105.574 41.0708C105.64 40.9378 105.64 40.7381 105.441 40.6051C105.308 40.5385 105.175 40.5385 105.109 40.6051C104.976 40.6716 104.91 40.7381 104.91 40.8712C104.976 41.0708 105.109 41.2704 105.308 41.2704Z" fill="#BDCEFA"/>
<path d="M200.279 94.3387C200.412 94.3387 200.478 94.2722 200.545 94.1392C200.611 94.0062 200.545 93.8067 200.412 93.6737H200.345C200.213 93.6072 200.014 93.6737 199.881 93.8067C199.814 93.9397 199.881 94.1392 200.014 94.2722H200.08C200.146 94.3387 200.213 94.3387 200.279 94.3387ZM197.89 93.0087C198.023 93.0087 198.089 92.9422 198.155 92.8092C198.222 92.6762 198.155 92.4767 198.023 92.3436H197.956C197.823 92.2771 197.624 92.3436 197.492 92.4767C197.425 92.6097 197.492 92.8092 197.624 92.9422H197.691C197.757 93.0087 197.823 93.0087 197.89 93.0087ZM195.501 91.6786C195.633 91.6786 195.7 91.6121 195.766 91.4791C195.832 91.3461 195.766 91.1466 195.633 91.0136C195.501 90.9471 195.235 90.9471 195.169 91.1466C195.102 91.2796 195.102 91.4791 195.235 91.6121H195.302C195.368 91.6786 195.434 91.6786 195.501 91.6786ZM193.111 90.3486C193.244 90.3486 193.311 90.2821 193.377 90.1491C193.443 90.0161 193.377 89.8166 193.244 89.6836H193.178C193.045 89.6171 192.846 89.6836 192.713 89.8166C192.647 89.9496 192.713 90.1491 192.846 90.2821H192.912C193.045 90.3486 193.045 90.3486 193.111 90.3486ZM190.722 89.0186C190.855 89.0186 190.921 88.9521 190.988 88.819C191.054 88.686 190.988 88.4865 190.855 88.3535H190.789C190.656 88.287 190.457 88.3535 190.324 88.4865C190.258 88.6195 190.324 88.819 190.457 88.9521H190.523C190.656 89.0186 190.722 89.0186 190.722 89.0186ZM188.399 87.6885C188.532 87.6885 188.598 87.622 188.665 87.489C188.731 87.356 188.665 87.1565 188.532 87.0235C188.399 86.957 188.134 86.957 188.068 87.1565C188.001 87.2895 188.001 87.489 188.134 87.622H188.2C188.267 87.6885 188.333 87.6885 188.399 87.6885ZM186.01 86.3585C186.143 86.3585 186.209 86.292 186.276 86.159C186.342 86.026 186.276 85.8265 186.143 85.6935C186.01 85.627 185.745 85.627 185.678 85.8265C185.612 85.9595 185.612 86.159 185.745 86.292H185.811C185.877 86.3585 185.944 86.3585 186.01 86.3585ZM183.621 85.0285C183.754 85.0285 183.82 84.9619 183.886 84.8289C183.953 84.6959 183.886 84.4964 183.754 84.3634H183.687C183.555 84.2969 183.355 84.3634 183.223 84.4964C183.156 84.6294 183.223 84.8289 183.355 84.9619H183.422C183.555 85.0284 183.555 85.0285 183.621 85.0285ZM181.232 83.6984C181.364 83.6984 181.431 83.6319 181.497 83.4989C181.564 83.3659 181.497 83.1664 181.364 83.0334H181.298C181.165 82.9669 180.966 83.0334 180.834 83.1664C180.767 83.2994 180.834 83.4989 180.966 83.6319H181.033C181.165 83.6984 181.232 83.6984 181.232 83.6984ZM178.909 82.3684C179.042 82.3684 179.108 82.3019 179.174 82.1689C179.241 82.0359 179.174 81.8364 179.042 81.7034C178.909 81.6369 178.643 81.6369 178.577 81.8364C178.511 81.9694 178.511 82.1689 178.71 82.3019H178.776C178.776 82.3684 178.842 82.3684 178.909 82.3684ZM176.52 81.0383C176.652 81.0383 176.719 80.9718 176.785 80.8388C176.851 80.7058 176.785 80.5063 176.652 80.3733C176.52 80.3068 176.254 80.3068 176.188 80.5063C176.121 80.6393 176.121 80.8388 176.321 80.9718H176.387C176.387 81.0383 176.453 81.0383 176.52 81.0383ZM174.13 79.7083C174.263 79.7083 174.33 79.6418 174.396 79.5088C174.462 79.3758 174.396 79.1763 174.263 79.0433C174.13 78.9768 173.865 78.9768 173.799 79.1763C173.732 79.3093 173.732 79.5088 173.931 79.6418H173.998C174.064 79.7083 174.064 79.7083 174.13 79.7083ZM171.741 78.3783C171.874 78.3783 171.94 78.3118 172.007 78.1788C172.073 78.0458 172.007 77.8463 171.874 77.7133C171.741 77.6468 171.476 77.6467 171.409 77.8463C171.343 77.9793 171.343 78.1788 171.542 78.3118H171.608C171.675 78.3783 171.741 78.3783 171.741 78.3783ZM169.418 77.1147C169.551 77.1147 169.617 77.0482 169.684 76.9152C169.75 76.7822 169.684 76.5827 169.551 76.4497C169.418 76.3832 169.153 76.3832 169.087 76.5827C169.02 76.7157 169.02 76.9152 169.219 77.0482H169.286C169.286 77.0482 169.352 77.1147 169.418 77.1147ZM167.029 75.7847C167.162 75.7847 167.228 75.7182 167.295 75.5852C167.361 75.4522 167.295 75.2527 167.162 75.1197C167.029 75.0532 166.764 75.0532 166.697 75.2527C166.631 75.3857 166.631 75.5852 166.83 75.7182H166.896C166.896 75.7182 166.963 75.7847 167.029 75.7847ZM164.64 74.4547C164.773 74.4547 164.839 74.3882 164.905 74.2552C164.972 74.1222 164.905 73.9227 164.773 73.7896H164.706C164.574 73.7231 164.374 73.7896 164.242 73.9227C164.175 74.0557 164.242 74.2552 164.374 74.3882H164.441C164.574 74.3882 164.574 74.4547 164.64 74.4547ZM162.251 73.1246C162.383 73.1246 162.45 73.0581 162.516 72.9251C162.583 72.7921 162.516 72.5926 162.383 72.4596C162.251 72.3931 161.985 72.3931 161.919 72.5926C161.853 72.7256 161.853 72.9251 161.985 73.0581H162.052C162.184 73.0581 162.251 73.1246 162.251 73.1246ZM159.928 71.7946C160.061 71.7946 160.127 71.7281 160.193 71.5951C160.26 71.4621 160.193 71.2626 160.061 71.1296H159.994C159.862 71.0631 159.662 71.1296 159.53 71.2626C159.463 71.3956 159.53 71.5951 159.662 71.7281H159.729C159.795 71.7281 159.862 71.7946 159.928 71.7946ZM157.539 70.4646C157.671 70.4646 157.738 70.3981 157.804 70.2651C157.871 70.132 157.804 69.9325 157.671 69.7995H157.605C157.472 69.733 157.273 69.7995 157.14 69.9325C157.074 70.0655 157.14 70.2651 157.273 70.3981H157.34C157.406 70.4646 157.472 70.4646 157.539 70.4646ZM155.149 69.1345C155.282 69.1345 155.349 69.068 155.415 68.935C155.481 68.802 155.415 68.6025 155.282 68.4695C155.149 68.403 154.884 68.403 154.818 68.6025C154.751 68.7355 154.751 68.935 154.884 69.068H154.95C155.017 69.1345 155.083 69.1345 155.149 69.1345ZM152.76 67.8045C152.893 67.8045 152.959 67.738 153.026 67.605C153.092 67.472 153.026 67.2725 152.893 67.1395C152.76 67.073 152.495 67.073 152.428 67.2725C152.362 67.4055 152.362 67.605 152.495 67.738H152.561C152.694 67.8045 152.76 67.8045 152.76 67.8045ZM150.437 66.4744C150.57 66.4744 150.636 66.4079 150.703 66.2749C150.769 66.1419 150.703 65.9424 150.57 65.8094H150.504C150.371 65.7429 150.172 65.8094 150.039 65.9424C149.973 66.0754 150.039 66.2749 150.172 66.4079H150.238C150.305 66.4744 150.371 66.4744 150.437 66.4744ZM148.048 65.1444C148.181 65.1444 148.247 65.0779 148.314 64.9449C148.38 64.8119 148.314 64.6124 148.181 64.4794H148.115C147.982 64.4129 147.783 64.4794 147.65 64.6124C147.584 64.7454 147.65 64.9449 147.783 65.0779H147.849C147.915 65.1444 147.982 65.1444 148.048 65.1444ZM145.659 63.8144C145.792 63.8144 145.858 63.7479 145.924 63.6149C145.991 63.4819 145.924 63.2824 145.792 63.1494C145.659 63.0829 145.393 63.0829 145.327 63.2824C145.261 63.4154 145.261 63.6149 145.393 63.7479H145.46C145.526 63.8144 145.593 63.8144 145.659 63.8144ZM143.27 62.4843C143.402 62.4843 143.469 62.4178 143.535 62.2848C143.602 62.1518 143.535 61.9523 143.402 61.8193C143.27 61.7528 143.004 61.7528 142.938 61.9523C142.872 62.0853 142.872 62.2848 143.004 62.4178H143.071C143.203 62.4843 143.27 62.4843 143.27 62.4843ZM140.947 61.1543C141.08 61.1543 141.146 61.0878 141.212 60.9548C141.279 60.8218 141.212 60.6223 141.08 60.4893H141.013C140.881 60.4228 140.681 60.4893 140.549 60.6223C140.482 60.7553 140.549 60.9548 140.681 61.0878H140.748C140.814 61.1543 140.881 61.1543 140.947 61.1543ZM138.558 59.8243C138.69 59.8243 138.757 59.7578 138.823 59.6248C138.89 59.4918 138.823 59.2923 138.69 59.1592H138.624C138.491 59.0927 138.292 59.1593 138.159 59.2923C138.093 59.4253 138.159 59.6248 138.292 59.7578H138.359C138.425 59.8243 138.491 59.8243 138.558 59.8243ZM136.168 58.4942C136.301 58.4942 136.368 58.4277 136.434 58.2947C136.5 58.1617 136.434 57.9622 136.301 57.8292C136.168 57.7627 135.903 57.7627 135.837 57.9622C135.77 58.0952 135.77 58.2947 135.903 58.4277H135.969C136.036 58.4942 136.102 58.4942 136.168 58.4942ZM133.779 57.1642C133.912 57.1642 133.978 57.0977 134.045 56.9647C134.111 56.8317 134.045 56.6322 133.912 56.4992C133.779 56.4327 133.514 56.4327 133.447 56.6322C133.381 56.7652 133.381 56.9647 133.514 57.0977H133.58C133.713 57.1642 133.779 57.1642 133.779 57.1642ZM131.456 55.8342C131.589 55.8342 131.656 55.7677 131.722 55.6347C131.788 55.5017 131.722 55.3021 131.589 55.1691C131.456 55.1026 131.191 55.1026 131.125 55.3021C131.058 55.4352 131.058 55.6347 131.257 55.7677H131.324C131.324 55.8342 131.39 55.8342 131.456 55.8342ZM129.067 54.5041C129.2 54.5041 129.266 54.4376 129.333 54.3046C129.399 54.1716 129.333 53.9721 129.2 53.8391H129.134C129.001 53.7726 128.802 53.8391 128.669 53.9721C128.603 54.1051 128.669 54.3046 128.802 54.4376H128.868C128.934 54.5041 129.001 54.5041 129.067 54.5041ZM126.678 53.1741C126.811 53.1741 126.877 53.1076 126.943 52.9746C127.01 52.8416 126.943 52.6421 126.811 52.5091C126.678 52.4426 126.413 52.4426 126.346 52.6421C126.28 52.7751 126.28 52.9746 126.479 53.1076H126.545C126.545 53.1741 126.612 53.1741 126.678 53.1741ZM124.289 51.844C124.422 51.844 124.488 51.7776 124.554 51.6445C124.621 51.5115 124.554 51.312 124.421 51.179C124.289 51.1125 124.023 51.1125 123.957 51.312C123.891 51.445 123.891 51.6445 124.09 51.7775H124.156C124.222 51.8441 124.289 51.844 124.289 51.844ZM121.966 50.514C122.099 50.514 122.165 50.4475 122.231 50.3145C122.298 50.1815 122.231 49.982 122.099 49.849C121.966 49.7825 121.7 49.7825 121.634 49.982C121.568 50.115 121.568 50.3145 121.767 50.4475H121.833C121.833 50.514 121.9 50.514 121.966 50.514ZM119.577 49.184C119.709 49.184 119.776 49.1175 119.842 48.9845C119.909 48.8515 119.842 48.652 119.709 48.519C119.577 48.4525 119.311 48.4525 119.245 48.652C119.178 48.785 119.179 48.9845 119.378 49.1175H119.444C119.444 49.184 119.51 49.184 119.577 49.184ZM117.187 47.8539C117.32 47.8539 117.387 47.7874 117.453 47.6544C117.519 47.5214 117.453 47.3219 117.32 47.1889H117.254C117.121 47.1224 116.922 47.1889 116.789 47.3219C116.723 47.4549 116.789 47.6544 116.922 47.7874H116.988C117.055 47.8539 117.121 47.8539 117.187 47.8539ZM114.798 46.5239C114.931 46.5239 114.997 46.4574 115.064 46.3244C115.13 46.1914 115.064 45.9919 114.931 45.8589C114.798 45.7924 114.533 45.7924 114.466 45.9919C114.4 46.1249 114.4 46.3244 114.533 46.4574H114.599C114.732 46.5239 114.732 46.5239 114.798 46.5239ZM112.475 45.1939C112.608 45.1939 112.675 45.1274 112.741 44.9944C112.807 44.8614 112.741 44.6619 112.608 44.5289C112.475 44.4623 112.21 44.4624 112.144 44.6619C112.077 44.7949 112.077 44.9944 112.21 45.1274H112.276C112.343 45.1939 112.409 45.1939 112.475 45.1939ZM110.086 43.9303C110.219 43.9303 110.285 43.8638 110.352 43.7308C110.418 43.5978 110.352 43.3983 110.219 43.2653H110.153C110.02 43.1988 109.821 43.2653 109.688 43.3983C109.622 43.5313 109.688 43.7308 109.821 43.8638H109.887C109.953 43.8638 110.02 43.9303 110.086 43.9303ZM107.697 42.6003C107.83 42.6003 107.896 42.5338 107.962 42.4008C108.029 42.2678 107.962 42.0683 107.83 41.9353C107.697 41.8688 107.432 41.8688 107.365 42.0683C107.299 42.2013 107.299 42.4008 107.432 42.5338H107.498C107.564 42.5338 107.631 42.6003 107.697 42.6003Z" fill="#BDCEFA"/>
<path d="M202.602 95.6685C202.801 95.6685 202.934 95.5354 202.934 95.3358C202.934 95.2028 202.868 95.0697 202.735 95.0032C202.602 94.9366 202.336 94.9366 202.27 95.1362C202.204 95.2693 202.204 95.4689 202.336 95.5355C202.403 95.602 202.469 95.6685 202.602 95.6685Z" fill="#BDCEFA"/>
<path d="M202.602 115.486C202.801 115.486 202.934 115.353 202.934 115.154V115.087C202.934 114.888 202.801 114.755 202.602 114.755C202.403 114.755 202.27 114.888 202.27 115.087V115.154C202.27 115.287 202.403 115.486 202.602 115.486ZM202.602 112.627C202.801 112.627 202.934 112.494 202.934 112.294V112.228C202.934 112.028 202.801 111.895 202.602 111.895C202.403 111.895 202.27 112.028 202.27 112.228V112.294C202.27 112.494 202.403 112.627 202.602 112.627ZM202.602 109.834C202.801 109.834 202.934 109.701 202.934 109.501V109.435C202.934 109.235 202.801 109.102 202.602 109.102C202.403 109.102 202.27 109.235 202.27 109.435V109.501C202.27 109.634 202.403 109.834 202.602 109.834ZM202.602 106.974C202.801 106.974 202.934 106.841 202.934 106.642V106.575C202.934 106.376 202.801 106.243 202.602 106.243C202.403 106.243 202.27 106.376 202.27 106.575V106.642C202.27 106.841 202.403 106.974 202.602 106.974ZM202.602 104.181C202.801 104.181 202.934 104.048 202.934 103.849V103.782C202.934 103.583 202.801 103.45 202.602 103.45C202.403 103.45 202.27 103.583 202.27 103.782V103.849C202.27 103.982 202.403 104.181 202.602 104.181ZM202.602 101.321C202.801 101.321 202.934 101.188 202.934 100.989V100.922C202.934 100.723 202.801 100.59 202.602 100.59C202.403 100.59 202.27 100.723 202.27 100.922V100.989C202.27 101.188 202.403 101.321 202.602 101.321ZM202.602 98.5284C202.801 98.5284 202.934 98.3954 202.934 98.1959V98.1294C202.934 97.9299 202.801 97.7969 202.602 97.7969C202.403 97.7969 202.27 97.9299 202.27 98.1294V98.1959C202.27 98.3289 202.403 98.5284 202.602 98.5284Z" fill="#BDCEFA"/>
<path d="M202.602 118.28C202.801 118.28 202.934 118.147 202.934 117.947C202.934 117.747 202.801 117.614 202.602 117.614C202.403 117.614 202.27 117.747 202.27 117.947C202.27 118.08 202.403 118.28 202.602 118.28Z" fill="#BDCEFA"/>
<path d="M244.148 131.38C244.214 131.38 244.28 131.314 244.28 131.247V104.646L244.214 104.58L228.618 96.3337C228.551 96.2672 228.419 96.3337 228.419 96.4002C228.352 96.4667 228.419 96.5997 228.485 96.5997L243.948 104.846V131.247C244.015 131.314 244.081 131.38 244.148 131.38Z" fill="#BDCEFA"/>
<path d="M232.931 174.141C233.13 174.141 233.263 174.008 233.263 173.808V173.742C233.263 173.542 233.13 173.409 232.931 173.409C232.732 173.409 232.6 173.542 232.6 173.742C232.6 173.941 232.799 174.141 232.931 174.141ZM232.931 171.414C233.13 171.414 233.263 171.281 233.263 171.081V171.015C233.263 170.815 233.13 170.682 232.931 170.682C232.732 170.682 232.6 170.815 232.6 171.015V171.081C232.6 171.281 232.799 171.414 232.931 171.414ZM232.931 168.687C233.13 168.687 233.263 168.554 233.263 168.355V168.288C233.263 168.089 233.13 167.956 232.931 167.956C232.732 167.956 232.6 168.089 232.6 168.288C232.6 168.488 232.799 168.687 232.931 168.687ZM232.931 165.961C233.13 165.961 233.263 165.828 233.263 165.628V165.562C233.263 165.362 233.13 165.229 232.931 165.229C232.732 165.229 232.6 165.362 232.6 165.562V165.628C232.6 165.828 232.799 165.961 232.931 165.961ZM232.931 163.234C233.13 163.234 233.263 163.101 233.263 162.902V162.835C233.263 162.636 233.13 162.503 232.931 162.503C232.732 162.503 232.6 162.636 232.6 162.835C232.6 163.035 232.799 163.234 232.931 163.234ZM232.931 160.508C233.13 160.508 233.263 160.375 233.263 160.175V160.109C233.263 159.909 233.13 159.776 232.931 159.776C232.732 159.776 232.6 159.909 232.6 160.109C232.6 160.308 232.799 160.508 232.931 160.508ZM232.931 157.781C233.13 157.781 233.263 157.648 233.263 157.449V157.382C233.263 157.183 233.13 157.05 232.931 157.05C232.732 157.05 232.6 157.183 232.6 157.382V157.449C232.6 157.648 232.799 157.781 232.931 157.781ZM232.931 155.054C233.13 155.054 233.263 154.921 233.263 154.722V154.656C233.263 154.456 233.13 154.323 232.931 154.323C232.732 154.323 232.6 154.456 232.6 154.656C232.6 154.855 232.799 155.054 232.931 155.054ZM232.931 152.328C233.13 152.328 233.263 152.195 233.263 151.995V151.929C233.263 151.729 233.13 151.596 232.931 151.596C232.732 151.596 232.6 151.729 232.6 151.929V151.995C232.6 152.195 232.799 152.328 232.931 152.328ZM232.931 149.601C233.13 149.601 233.263 149.468 233.263 149.269V149.202C233.263 149.003 233.13 148.87 232.931 148.87C232.732 148.87 232.6 149.003 232.6 149.202C232.6 149.402 232.799 149.601 232.931 149.601ZM232.931 146.875C233.13 146.875 233.263 146.742 233.263 146.542V146.476C233.263 146.276 233.13 146.143 232.931 146.143C232.732 146.143 232.6 146.276 232.6 146.476V146.542C232.6 146.742 232.799 146.875 232.931 146.875ZM232.931 144.148C233.13 144.148 233.263 144.015 233.263 143.816V143.749C233.263 143.55 233.13 143.417 232.931 143.417C232.732 143.417 232.6 143.55 232.6 143.749V143.816C232.6 144.015 232.799 144.148 232.931 144.148ZM232.931 141.422C233.13 141.422 233.263 141.289 233.263 141.089V141.023C233.263 140.823 233.13 140.69 232.931 140.69C232.732 140.69 232.6 140.823 232.6 141.023C232.6 141.222 232.799 141.422 232.931 141.422ZM232.931 138.695C233.13 138.695 233.263 138.562 233.263 138.363V138.296C233.263 138.097 233.13 137.964 232.931 137.964C232.732 137.964 232.6 138.097 232.6 138.296V138.363C232.6 138.562 232.799 138.695 232.931 138.695ZM232.931 135.968C233.13 135.968 233.263 135.835 233.263 135.636V135.569C233.263 135.37 233.13 135.237 232.931 135.237C232.732 135.237 232.6 135.37 232.6 135.569V135.636C232.6 135.835 232.799 135.968 232.931 135.968ZM232.931 133.242C233.13 133.242 233.263 133.109 233.263 132.909V132.843C233.263 132.643 233.13 132.51 232.931 132.51C232.732 132.51 232.6 132.643 232.6 132.843V132.909C232.6 133.109 232.799 133.242 232.931 133.242ZM232.931 130.515C233.13 130.515 233.263 130.382 233.263 130.183V130.116C233.263 129.917 233.13 129.784 232.931 129.784C232.732 129.784 232.6 129.917 232.6 130.116V130.183C232.6 130.382 232.799 130.515 232.931 130.515ZM232.931 127.789C233.13 127.789 233.263 127.656 233.263 127.456V127.39C233.263 127.19 233.13 127.057 232.931 127.057C232.732 127.057 232.6 127.19 232.6 127.39C232.6 127.589 232.799 127.789 232.931 127.789ZM232.931 125.062C233.13 125.062 233.263 124.929 233.263 124.73V124.663C233.263 124.464 233.13 124.331 232.931 124.331C232.732 124.331 232.6 124.464 232.6 124.663V124.73C232.6 124.929 232.799 125.062 232.931 125.062ZM232.931 122.336C233.13 122.336 233.263 122.203 233.263 122.003V121.937C233.263 121.737 233.13 121.604 232.931 121.604C232.732 121.604 232.6 121.737 232.6 121.937V122.003C232.6 122.203 232.799 122.336 232.931 122.336ZM232.931 119.609C233.13 119.609 233.263 119.476 233.263 119.277V119.21C233.263 119.011 233.13 118.877 232.931 118.877C232.732 118.877 232.6 119.011 232.6 119.21V119.277C232.6 119.476 232.799 119.609 232.931 119.609ZM232.931 116.882C233.13 116.882 233.263 116.749 233.263 116.55V116.483C233.263 116.284 233.13 116.151 232.931 116.151C232.732 116.151 232.6 116.284 232.6 116.483V116.55C232.6 116.749 232.799 116.882 232.931 116.882ZM232.931 114.156C233.13 114.156 233.263 114.023 233.263 113.823V113.757C233.263 113.557 233.13 113.424 232.931 113.424C232.732 113.424 232.6 113.557 232.6 113.757C232.6 113.956 232.799 114.156 232.931 114.156ZM232.931 111.429C233.13 111.429 233.263 111.296 233.263 111.097V111.03C233.263 110.831 233.13 110.698 232.931 110.698C232.732 110.698 232.6 110.831 232.6 111.03V111.097C232.6 111.296 232.799 111.429 232.931 111.429ZM232.931 108.703C233.13 108.703 233.263 108.57 233.263 108.37V108.304C233.263 108.104 233.13 107.971 232.931 107.971C232.732 107.971 232.6 108.104 232.6 108.304V108.37C232.6 108.57 232.799 108.703 232.931 108.703ZM232.931 105.976C233.13 105.976 233.263 105.843 233.263 105.644V105.577C233.263 105.378 233.13 105.245 232.931 105.245C232.732 105.245 232.6 105.378 232.6 105.577V105.644C232.6 105.843 232.799 105.976 232.931 105.976ZM232.931 103.25C233.13 103.25 233.263 103.117 233.263 102.917V102.851C233.263 102.651 233.13 102.518 232.931 102.518C232.732 102.518 232.6 102.651 232.6 102.851V102.917C232.6 103.117 232.799 103.25 232.931 103.25ZM232.931 100.523C233.13 100.523 233.263 100.39 233.263 100.19V100.124C233.263 99.9245 233.13 99.7915 232.931 99.7915C232.732 99.7915 232.6 99.9245 232.6 100.124C232.6 100.323 232.799 100.523 232.931 100.523ZM232.931 97.7964C233.13 97.7964 233.263 97.6634 233.263 97.4639V97.3974C233.263 97.1979 233.13 97.0649 232.931 97.0649C232.732 97.0649 232.6 97.1979 232.6 97.3974V97.4639C232.6 97.6634 232.799 97.7964 232.931 97.7964ZM232.931 95.0698C233.13 95.0698 233.263 94.9368 233.263 94.7373V94.6708C233.263 94.4713 233.13 94.3383 232.931 94.3383C232.732 94.3383 232.6 94.4713 232.6 94.6708V94.7373C232.6 94.9368 232.799 95.0698 232.931 95.0698ZM232.931 92.3433C233.13 92.3433 233.263 92.2103 233.263 92.0108V91.9443C233.263 91.7447 233.13 91.6117 232.931 91.6117C232.732 91.6117 232.6 91.7447 232.6 91.9443V92.0108C232.6 92.2103 232.799 92.3433 232.931 92.3433ZM232.931 89.6167C233.13 89.6167 233.263 89.4837 233.263 89.2842V89.2177C233.263 89.0182 233.13 88.8852 232.931 88.8852C232.732 88.8852 232.6 89.0182 232.6 89.2177V89.2842C232.6 89.4837 232.799 89.6167 232.931 89.6167ZM232.931 86.8901C233.13 86.8901 233.263 86.7571 233.263 86.5576V86.4911C233.263 86.2916 233.13 86.1586 232.931 86.1586C232.732 86.1586 232.6 86.2916 232.6 86.4911C232.6 86.6906 232.799 86.8901 232.931 86.8901ZM232.931 84.1635C233.13 84.1635 233.263 84.0305 233.263 83.831V83.7645C233.263 83.565 233.13 83.432 232.931 83.432C232.732 83.432 232.6 83.565 232.6 83.7645V83.831C232.6 84.0305 232.799 84.1635 232.931 84.1635ZM232.931 81.437C233.13 81.437 233.263 81.304 233.263 81.1045V81.038C233.263 80.8385 233.13 80.7054 232.931 80.7054C232.732 80.7054 232.6 80.8385 232.6 81.038V81.1045C232.6 81.304 232.799 81.437 232.931 81.437ZM232.931 78.7104C233.13 78.7104 233.263 78.5774 233.263 78.3779V78.3114C233.263 78.1119 233.13 77.9789 232.931 77.9789C232.732 77.9789 232.6 78.1119 232.6 78.3114V78.3779C232.6 78.5774 232.799 78.7104 232.931 78.7104ZM232.931 75.9838C233.13 75.9838 233.263 75.8508 233.263 75.6513V75.5848C233.263 75.3853 233.13 75.2523 232.931 75.2523C232.732 75.2523 232.6 75.3853 232.6 75.5848V75.6513C232.6 75.8508 232.799 75.9838 232.931 75.9838ZM231.67 74.0553C231.803 74.0553 231.869 73.9888 231.936 73.8558C232.002 73.7228 232.002 73.5232 231.803 73.3902H231.737C231.604 73.3237 231.405 73.3237 231.272 73.5232C231.206 73.6562 231.206 73.8558 231.405 73.9888H231.471C231.538 73.9888 231.604 74.0553 231.67 74.0553ZM229.281 72.6587C229.414 72.6587 229.547 72.5922 229.547 72.5257C229.613 72.3927 229.613 72.1932 229.48 72.0602H229.414C229.281 71.9937 229.082 71.9937 228.949 72.1932C228.883 72.3262 228.883 72.5257 229.082 72.6587C229.148 72.6587 229.215 72.6587 229.281 72.6587ZM226.892 71.3287C227.025 71.3287 227.157 71.2622 227.157 71.1957C227.224 71.0627 227.224 70.8632 227.091 70.7302H227.025C226.892 70.6637 226.693 70.6637 226.56 70.8632C226.494 70.9962 226.494 71.1957 226.693 71.3287C226.759 71.2622 226.826 71.3287 226.892 71.3287ZM224.569 69.9986C224.702 69.9986 224.768 69.9322 224.835 69.7992C224.901 69.6661 224.901 69.4666 224.702 69.3336H224.635C224.503 69.2671 224.304 69.2671 224.171 69.4666C224.105 69.5996 224.105 69.7991 224.304 69.9322H224.37C224.503 69.9322 224.503 69.9986 224.569 69.9986ZM222.18 68.6021C222.313 68.6021 222.445 68.5356 222.445 68.4691C222.512 68.3361 222.512 68.1366 222.379 68.0036H222.313C222.18 67.9371 221.981 67.9371 221.848 68.1366C221.782 68.2696 221.782 68.4691 221.981 68.6021C222.047 68.6021 222.113 68.6021 222.18 68.6021ZM219.857 67.2721C219.99 67.2721 220.122 67.2056 220.122 67.1391C220.189 67.0061 220.189 66.8066 220.056 66.6736H219.99C219.857 66.6071 219.658 66.6071 219.525 66.8066C219.459 66.9396 219.459 67.1391 219.658 67.2721C219.724 67.2056 219.791 67.2721 219.857 67.2721ZM217.468 65.942C217.601 65.942 217.667 65.8755 217.733 65.7425C217.8 65.6095 217.8 65.41 217.601 65.277H217.534C217.401 65.2105 217.202 65.2105 217.07 65.41C217.003 65.543 217.003 65.7425 217.202 65.8755H217.269C217.401 65.942 217.468 65.942 217.468 65.942ZM215.079 64.5455C215.211 64.5455 215.344 64.479 215.344 64.4125C215.41 64.2795 215.41 64.08 215.278 63.947H215.211C215.079 63.8805 214.879 63.8805 214.747 64.08C214.68 64.213 214.68 64.4125 214.879 64.5455C214.946 64.5455 215.012 64.5455 215.079 64.5455ZM212.756 63.2155C212.888 63.2155 213.021 63.149 213.021 63.0825C213.088 62.9495 213.088 62.75 212.955 62.6169H212.888C212.756 62.5504 212.557 62.5504 212.424 62.75C212.358 62.883 212.358 63.0825 212.557 63.2155C212.623 63.149 212.689 63.2155 212.756 63.2155ZM210.433 61.8854C210.566 61.8854 210.632 61.8189 210.698 61.6859C210.765 61.5529 210.765 61.3534 210.566 61.2204H210.499C210.367 61.1539 210.167 61.1539 210.035 61.3534C209.968 61.4864 209.968 61.6859 210.167 61.8189H210.234C210.3 61.8854 210.367 61.8854 210.433 61.8854ZM207.977 60.4889C208.11 60.4889 208.243 60.4224 208.243 60.3559C208.309 60.2229 208.309 60.0234 208.176 59.8904H208.11C207.977 59.8239 207.778 59.8239 207.645 60.0234C207.579 60.1564 207.579 60.3559 207.778 60.4889C207.911 60.4889 207.977 60.4889 207.977 60.4889ZM205.654 59.1589C205.787 59.1589 205.92 59.0924 205.92 59.0258C205.986 58.8928 205.986 58.6933 205.854 58.5603H205.787C205.654 58.4938 205.455 58.4938 205.323 58.6933C205.256 58.8263 205.256 59.0258 205.455 59.1589C205.522 59.0923 205.588 59.1589 205.654 59.1589ZM203.332 57.8288C203.464 57.8288 203.531 57.7623 203.597 57.6293C203.663 57.4963 203.663 57.2968 203.464 57.1638H203.398C203.265 57.0973 203.066 57.0973 202.933 57.2968C202.867 57.4298 202.867 57.6293 203.066 57.7623H203.132C203.199 57.8288 203.265 57.8288 203.332 57.8288Z" fill="#BDCEFA"/>
<path d="M185.612 77.2473C185.744 77.2473 185.877 77.1808 185.877 77.1143C185.944 76.9813 185.944 76.7818 185.811 76.6488H185.744C185.612 76.5823 185.413 76.5823 185.28 76.7818C185.214 76.9148 185.213 77.1143 185.413 77.2473C185.479 77.2473 185.545 77.2473 185.612 77.2473ZM186.74 76.4493C186.939 76.4493 187.072 76.3163 187.072 76.1168V76.0503C187.072 75.8508 186.939 75.7177 186.74 75.7177C186.541 75.7177 186.408 75.8508 186.408 76.0503V76.1168C186.408 76.3163 186.541 76.4493 186.74 76.4493ZM183.289 75.8507C183.422 75.8507 183.554 75.7842 183.554 75.7177C183.621 75.5847 183.621 75.3852 183.488 75.2522H183.422C183.289 75.1857 183.09 75.1857 182.957 75.3852C182.891 75.5182 182.891 75.7177 183.09 75.8507C183.156 75.8507 183.222 75.8507 183.289 75.8507ZM180.9 74.5207C181.032 74.5207 181.165 74.4542 181.165 74.3877C181.231 74.2547 181.231 74.0552 181.099 73.9222H181.032C180.9 73.8557 180.701 73.8557 180.568 74.0552C180.501 74.1882 180.501 74.3877 180.701 74.5207C180.767 74.5207 180.833 74.5207 180.9 74.5207ZM186.74 73.7227C186.939 73.7227 187.072 73.5897 187.072 73.3902V73.3237C187.072 73.1242 186.939 72.9912 186.74 72.9912C186.541 72.9912 186.408 73.1242 186.408 73.3237V73.3902C186.408 73.5897 186.541 73.7227 186.74 73.7227ZM178.577 73.1242C178.71 73.1242 178.842 73.0577 178.842 72.9912C178.909 72.8582 178.909 72.6587 178.776 72.5257H178.71C178.577 72.4592 178.378 72.4592 178.245 72.6587C178.179 72.7917 178.179 72.9912 178.378 73.1242C178.444 73.1242 178.51 73.1242 178.577 73.1242ZM176.254 71.7941C176.387 71.7941 176.453 71.7276 176.519 71.6611C176.586 71.5281 176.586 71.3286 176.387 71.1956L176.32 71.1291C176.188 71.0626 175.988 71.0626 175.856 71.2621C175.789 71.3951 175.789 71.5946 175.988 71.7276L176.055 71.7941C176.121 71.7941 176.188 71.7941 176.254 71.7941ZM186.74 70.9961C186.939 70.9961 187.072 70.8631 187.072 70.6636C187.072 70.4641 186.939 70.3311 186.74 70.3311C186.541 70.3311 186.408 70.4641 186.408 70.6636V70.7301C186.408 70.8631 186.541 70.9961 186.74 70.9961ZM173.865 70.3976C173.997 70.3976 174.13 70.3311 174.13 70.2646C174.197 70.1316 174.197 69.9321 174.064 69.7991L173.997 69.7326C173.865 69.6661 173.666 69.6661 173.533 69.8656C173.467 69.9986 173.467 70.1981 173.666 70.3311C173.732 70.3976 173.798 70.3976 173.865 70.3976ZM171.476 69.0676C171.608 69.0676 171.741 69.0011 171.741 68.9346C171.807 68.8016 171.807 68.6021 171.675 68.469L171.608 68.4025C171.476 68.336 171.276 68.336 171.144 68.5355C171.077 68.6686 171.077 68.8681 171.276 69.0011C171.343 69.0011 171.409 69.0676 171.476 69.0676ZM186.74 68.2695C186.939 68.2695 187.072 68.1365 187.072 67.937V67.8705C187.072 67.671 186.939 67.538 186.74 67.538C186.541 67.538 186.408 67.671 186.408 67.8705V67.937C186.408 68.1365 186.541 68.2695 186.74 68.2695ZM169.153 67.7375C169.285 67.7375 169.352 67.671 169.418 67.6045C169.485 67.4715 169.485 67.272 169.285 67.139L169.219 67.0725C169.086 67.006 168.887 67.006 168.754 67.2055C168.688 67.3385 168.688 67.538 168.887 67.671L168.954 67.7375C169.02 67.671 169.086 67.7375 169.153 67.7375ZM166.763 66.341C166.896 66.341 167.029 66.2745 167.029 66.208C167.095 66.075 167.095 65.8755 166.963 65.7425L166.896 65.676C166.763 65.6095 166.564 65.6095 166.432 65.809C166.365 65.942 166.365 66.1415 166.564 66.2745C166.631 66.2745 166.697 66.341 166.763 66.341ZM186.74 65.543C186.939 65.543 187.072 65.41 187.072 65.2105V65.144C187.072 64.9445 186.939 64.8114 186.74 64.8114C186.541 64.8114 186.408 64.9445 186.408 65.144V65.2105C186.408 65.41 186.541 65.543 186.74 65.543ZM164.441 64.9445C164.573 64.9445 164.706 64.8779 164.706 64.8114C164.772 64.6784 164.772 64.4789 164.64 64.3459H164.573C164.441 64.2794 164.242 64.2794 164.109 64.4789C164.042 64.6119 164.042 64.8115 164.242 64.9445C164.308 64.9445 164.374 64.9445 164.441 64.9445ZM162.118 63.6144C162.251 63.6144 162.317 63.5479 162.383 63.4149C162.45 63.2819 162.45 63.0824 162.251 62.9494H162.184C162.051 62.8829 161.852 62.8829 161.72 63.0824C161.653 63.2154 161.653 63.4149 161.852 63.5479H161.919C161.985 63.6144 162.051 63.6144 162.118 63.6144ZM159.729 62.2179C159.861 62.2179 159.994 62.1514 159.994 62.0849C160.06 61.9519 160.06 61.7524 159.928 61.6194H159.861C159.729 61.5529 159.529 61.5529 159.397 61.7524C159.33 61.8854 159.33 62.0849 159.529 62.2179C159.596 62.2179 159.662 62.2179 159.729 62.2179Z" fill="#BDCEFA"/>
<path d="M20.2263 61.8863L44.3176 75.8517C46.0431 76.8492 49.1624 76.7162 51.2197 75.5857L74.3155 62.2188C76.3728 61.0218 76.572 59.2262 74.78 58.2287L50.6888 44.2633C48.9633 43.2658 45.844 43.3988 43.7866 44.5293L20.6909 57.8962C18.6335 59.0932 18.4344 60.8888 20.2263 61.8863Z" fill="#E8F2FE"/>
<path d="M19.0322 147.541V60.4897C19.1649 61.0218 19.4967 61.4873 20.1604 61.8863L44.2516 75.8517C45.1144 76.3172 46.2426 76.5832 47.4373 76.5167V164.166C46.2426 164.166 45.1144 163.967 44.2516 163.501L20.1604 149.536C19.2976 149.07 18.8994 148.339 19.0322 147.541Z" fill="url(#paint4_linear_914_429)"/>
<path d="M51.1538 75.5855L74.2495 62.2186C75.245 61.6866 75.776 60.9551 75.9087 60.29V147.341C76.1078 148.205 75.5105 149.203 74.2495 149.934L51.1538 163.301C50.0919 163.9 48.7645 164.232 47.4372 164.232V76.5165C48.7645 76.5165 50.0919 76.184 51.1538 75.5855Z" fill="#DDDDDD"/>
<path d="M51.1538 75.5855L74.2495 62.2186C75.245 61.6866 75.776 60.9551 75.9087 60.29V147.341C76.1078 148.205 75.5105 149.203 74.2495 149.934L51.1538 163.301C50.0919 163.9 48.7645 164.232 47.4372 164.232V76.5165C48.7645 76.5165 50.0919 76.184 51.1538 75.5855Z" fill="url(#paint5_linear_914_429)"/>
<path d="M19.8935 212.247L64.0276 236.986C65.9523 238.116 69.4034 237.983 71.6598 236.653L86.327 227.875C88.5834 226.545 88.8489 224.55 86.8579 223.419L42.9229 198.148C40.9983 197.018 37.5472 197.151 35.2907 198.481L20.4245 207.725C18.2344 209.121 17.9689 211.116 19.8935 212.247Z" fill="#E8F2FE"/>
<path d="M18.6334 215.04V210.718C18.7662 211.316 19.1644 211.848 19.8944 212.314L64.0285 237.053C64.9576 237.585 66.285 237.851 67.6123 237.784V242.838C66.285 242.838 65.024 242.639 64.0285 242.107L19.8944 217.368C18.8989 216.703 18.5007 215.838 18.6334 215.04Z" fill="url(#paint6_linear_914_429)"/>
<path d="M71.6605 236.72L86.3277 227.942C87.3895 227.344 87.9868 226.546 88.1859 225.748V230.07C88.385 231.068 87.7877 232.132 86.3277 232.93L71.6605 241.708C70.4659 242.373 69.0059 242.772 67.5458 242.772V237.718C69.0059 237.718 70.5323 237.385 71.6605 236.72Z" fill="url(#paint7_linear_914_429)"/>
<path d="M1.57648 239.512L45.7105 264.251C47.6352 265.382 51.0863 265.249 53.3427 263.919L68.0098 255.14C70.2663 253.81 70.5318 251.815 68.5408 250.685L24.6058 225.414C22.6812 224.284 19.2301 224.417 16.9736 225.747L2.10741 234.99C-0.149071 236.387 -0.414536 238.382 1.57648 239.512Z" fill="#E8F2FE"/>
<path d="M0.249611 242.239V237.916C0.382347 238.515 0.780544 239.047 1.51058 239.512L45.6447 264.251C46.5738 264.783 47.9012 265.049 49.2285 264.982V270.036C47.9012 270.036 46.6402 269.837 45.6447 269.305L1.51058 244.566C0.515076 243.901 0.116879 243.103 0.249611 242.239Z" fill="url(#paint8_linear_914_429)"/>
<path d="M53.3434 263.919L68.0105 255.14C69.0724 254.542 69.6697 253.744 69.8688 252.946V257.268C70.0679 258.266 69.4706 259.33 68.0105 260.128L53.3434 268.906C52.1488 269.571 50.6887 269.97 49.2287 269.97V264.916C50.6887 264.983 52.1488 264.584 53.3434 263.919Z" fill="url(#paint9_linear_914_429)"/>
<path d="M9.34178 169.42L140.218 244.966C146.124 248.358 156.478 247.959 163.313 244.035L243.153 198.016C249.989 194.092 250.719 188.041 244.812 184.649L111.68 110.233C105.773 106.842 95.4199 107.241 88.5841 111.164L11.001 156.053C4.23151 159.977 3.4351 166.028 9.34178 169.42Z" fill="#E8F2FE"/>
<path d="M5.49265 168.289V164.698C5.82448 166.493 7.15181 168.156 9.34192 169.419L140.218 244.965C143.072 246.628 146.921 247.36 150.969 247.227V252.946C146.987 253.012 143.072 252.347 140.218 250.685L9.34192 175.139C6.28905 173.343 5.02808 170.816 5.49265 168.289Z" fill="url(#paint10_linear_914_429)"/>
<path d="M163.314 243.968L243.153 198.015C246.405 196.153 248.263 193.759 248.662 191.498V195.089C249.259 198.015 247.401 201.273 243.153 203.734L163.314 249.753C159.796 251.815 155.283 252.879 150.969 253.012V247.293C155.283 247.093 159.796 246.029 163.314 243.968Z" fill="#C9C9C9"/>
<path d="M163.314 243.968L243.153 198.015C246.405 196.153 248.263 193.759 248.662 191.498V195.089C249.259 198.015 247.401 201.273 243.153 203.734L163.314 249.753C159.796 251.815 155.283 252.879 150.969 253.012V247.293C155.283 247.093 159.796 246.029 163.314 243.968Z" fill="url(#paint11_linear_914_429)"/>
<path d="M132.253 210.984L159.596 226.812L229.083 186.578L201.806 170.75L132.253 210.984Z" fill="white"/>
<path d="M132.254 210.984V222.356L159.597 238.183V226.811L132.254 210.984Z" fill="url(#paint12_linear_914_429)"/>
<path d="M229.083 186.578V197.949L159.597 238.183V226.811L229.083 186.578Z" fill="url(#paint13_linear_914_429)"/>
<path d="M188.997 182.92L201.01 189.836C201.873 190.368 203.399 190.302 204.461 189.703L215.942 183.053C216.938 182.455 217.071 181.59 216.208 181.058L204.195 174.142C203.333 173.61 201.806 173.676 200.744 174.275L189.263 180.925C188.267 181.524 188.135 182.455 188.997 182.92Z" fill="#99CFFF"/>
<path d="M188.466 187.508V182.188C188.533 182.454 188.732 182.72 189.064 182.92L201.076 189.836C201.474 190.102 202.072 190.168 202.669 190.168V195.754C202.072 195.754 201.474 195.688 201.076 195.422L189.064 188.506C188.533 188.306 188.4 187.907 188.466 187.508Z" fill="#70C3FF"/>
<path d="M204.395 189.769L215.876 183.119C216.341 182.853 216.606 182.521 216.673 182.122V187.442C216.739 187.907 216.474 188.373 215.876 188.705L204.395 195.355C203.864 195.688 203.2 195.821 202.536 195.821V190.235C203.267 190.235 203.93 190.035 204.395 189.769Z" fill="#249AEF"/>
<path d="M167.892 195.223L179.905 202.14C180.768 202.672 182.294 202.605 183.356 202.007L194.837 195.356C195.833 194.758 195.966 193.893 195.103 193.361L183.091 186.445C182.228 185.913 180.701 185.98 179.639 186.578L168.158 193.228C167.096 193.827 166.963 194.691 167.892 195.223Z" fill="#F9825D"/>
<path d="M167.295 199.812V194.492C167.362 194.758 167.561 195.024 167.893 195.223L179.905 202.139C180.303 202.405 180.9 202.472 181.498 202.472V208.058C180.9 208.058 180.303 207.992 179.905 207.726L167.893 200.809C167.428 200.543 167.229 200.211 167.295 199.812Z" fill="#FF8661"/>
<path d="M183.29 202.007L194.771 195.356C195.236 195.09 195.501 194.758 195.567 194.359V199.679C195.634 200.145 195.368 200.61 194.771 200.943L183.29 207.593C182.759 207.925 182.095 208.058 181.431 208.058V202.472C182.095 202.472 182.759 202.339 183.29 202.007Z" fill="#D56144"/>
<path d="M146.256 207.659L158.269 214.575C159.132 215.107 160.658 215.041 161.72 214.442L173.201 207.792C174.197 207.193 174.33 206.329 173.467 205.797L161.455 198.881C160.592 198.349 159.065 198.415 158.003 199.014L146.522 205.664C145.526 206.262 145.394 207.193 146.256 207.659Z" fill="#98EF7A"/>
<path d="M145.726 212.248V206.928C145.792 207.194 145.991 207.46 146.323 207.659L158.335 214.575C158.734 214.841 159.331 214.908 159.928 214.908V220.494C159.331 220.494 158.734 220.428 158.335 220.162L146.323 213.245C145.792 212.979 145.659 212.647 145.726 212.248Z" fill="#91E873"/>
<path d="M161.72 214.442L173.202 207.792C173.666 207.526 173.932 207.193 173.998 206.794V212.115C174.064 212.58 173.799 213.046 173.202 213.378L161.72 220.028C161.189 220.361 160.526 220.494 159.862 220.494V214.908C160.526 214.908 161.189 214.775 161.72 214.442Z" fill="#68C945"/>
<path d="M32.968 160.376C22.7417 160.376 14.4516 155.583 14.4516 149.67C14.4516 143.756 22.7417 138.963 32.968 138.963C43.1943 138.963 51.4844 143.756 51.4844 149.67C51.4844 155.583 43.1943 160.376 32.968 160.376Z" fill="white"/>
<path d="M19.8944 157.251C27.1284 161.441 38.809 161.441 46.043 157.251C49.6268 155.189 51.4187 152.463 51.4851 149.736V161.241C51.4851 163.968 49.6932 166.761 46.043 168.889C38.809 173.078 27.1284 173.078 19.8944 168.889C16.2442 166.761 14.4523 164.034 14.4523 161.241V149.736C14.5187 152.463 16.3106 155.189 19.8944 157.251Z" fill="url(#paint14_linear_914_429)"/>
<path d="M32.9689 141.556L21.6865 148.073C27.8586 151.664 38.0791 151.664 44.2513 148.073C50.4234 144.482 50.4234 138.564 44.2513 135.039C40.8002 133.044 35.9554 132.046 31.0442 132.379L32.9689 141.556Z" fill="#76B5CE"/>
<path d="M44.3174 148.073C47.3703 146.278 48.9631 143.95 48.9631 141.556V148.14C48.9631 150.534 47.4367 152.928 44.3174 154.724C38.1453 158.315 27.9248 158.315 21.7526 154.724V148.073C27.9248 151.664 38.0789 151.664 44.3174 148.073Z" fill="#249AEF"/>
<path d="M32.9689 141.556L21.6865 148.073C27.8586 151.664 38.0791 151.664 44.2513 148.073C50.4234 144.482 50.4234 138.564 44.2513 135.039C40.8002 133.044 35.9554 132.046 31.0442 132.379L32.9689 141.556Z" fill="#99CFFF"/>
<path d="M32.969 134.773L31.1107 125.596C27.5269 125.862 24.2749 126.793 21.6866 128.256C15.5145 131.847 15.5145 137.766 21.6866 141.29L32.969 134.773Z" fill="#F97F58"/>
<path d="M32.969 134.773V141.556L21.6866 148.073V141.29L32.969 134.773Z" fill="#D56144"/>
<path d="M17.0403 148.073V134.773C17.0403 137.101 18.6332 139.495 21.686 141.224V148.007V154.657C18.5668 152.928 17.0403 150.467 17.0403 148.073Z" fill="#FF8661"/>
<path d="M70.9962 131.314L97.2776 116.086C100.397 114.29 99.9987 111.164 96.4148 109.103C92.831 107.041 87.3889 106.775 84.2697 108.571L57.9883 123.8C54.8691 125.595 55.2673 128.721 58.8511 130.782C62.5013 132.844 67.9434 133.11 70.9962 131.314Z" fill="white"/>
<path d="M58.9179 130.782C62.5018 132.844 67.9439 133.11 71.0631 131.314L97.3445 116.085C98.6718 115.287 99.4019 114.29 99.4683 113.159V120.94V121.006C99.4683 122.137 98.7382 123.201 97.3445 123.999L71.0631 139.228C67.9439 141.023 62.5018 140.824 58.9179 138.696C56.8606 137.499 55.8651 136.036 55.9314 134.573V126.726C55.9314 128.189 56.9269 129.652 58.9179 130.782Z" fill="url(#paint15_linear_914_429)"/>
<path d="M86.129 113.825C87.4563 114.623 89.6464 114.623 91.0401 113.825C92.3675 113.027 92.3675 111.763 91.0401 111.032C89.7128 110.234 87.5227 110.234 86.129 111.032C84.7353 111.763 84.7353 113.027 86.129 113.825Z" fill="#BDCEFA"/>
<path d="M78.4964 118.214C79.8237 119.012 82.0139 119.012 83.4076 118.214C84.7349 117.416 84.7349 116.152 83.4076 115.421C82.0802 114.623 79.8901 114.623 78.4964 115.421C77.1691 116.152 77.1691 117.416 78.4964 118.214Z" fill="#BDCEFA"/>
<path d="M70.8643 122.603C72.1917 123.401 74.3818 123.401 75.7755 122.603C77.1028 121.805 77.1028 120.541 75.7755 119.81C74.4481 119.012 72.258 119.012 70.8643 119.81C69.537 120.608 69.537 121.872 70.8643 122.603Z" fill="#BDCEFA"/>
<path d="M63.232 127.059C64.5593 127.857 66.7495 127.857 68.1432 127.059C69.4705 126.261 69.4705 124.997 68.1432 124.266C66.8158 123.467 64.6257 123.467 63.232 124.266C61.9047 124.997 61.9047 126.261 63.232 127.059Z" fill="#BDCEFA"/>
<path d="M82.0134 117.614C81.0843 117.747 80.2215 117.149 80.0888 116.218L78.4296 106.775C78.2969 105.844 78.8942 104.979 79.8233 104.846C80.7525 104.713 81.6152 105.312 81.748 106.243L83.4071 115.686C83.5399 116.55 82.9426 117.415 82.0134 117.614Z" fill="#F9AB83"/>
<path d="M89.5793 118.213C89.3138 119.078 88.3183 119.61 87.4555 119.344L81.6152 117.615C80.6861 117.548 79.956 116.75 80.0224 115.819C80.0888 114.888 80.8852 114.156 81.8143 114.223L88.451 116.085C89.3138 116.351 89.8447 117.282 89.5793 118.213Z" fill="#F9AB83"/>
<path d="M72.0586 146.077C72.0586 146.277 72.1913 146.476 72.5232 146.676C72.5895 146.742 72.5232 145.478 72.7886 145.678C72.855 145.744 76.9034 148.937 79.2263 148.338C79.4917 148.272 79.5581 148.072 79.5581 147.873V147.341C79.5581 146.742 78.7617 145.878 77.4343 144.614C75.9743 143.217 75.1115 142.353 72.9877 143.55C72.3904 143.882 72.125 144.148 72.125 144.414L72.0586 146.077Z" fill="#010400"/>
<path d="M77.434 144.614C79.1595 146.277 80.0887 147.274 79.2259 147.806C78.3631 148.338 76.5712 147.54 74.7793 146.144C73.1865 144.946 70.8637 144.813 72.9874 143.55C75.1111 142.353 76.0403 143.217 77.434 144.614Z" fill="#484968"/>
<path d="M75.709 143.816L75.5763 128.255L70.466 129.917L71.3288 132.444C71.3288 132.444 70.9306 135.836 71.9924 139.294C71.9924 139.294 72.7225 140.824 72.5898 144.282C72.5898 144.282 74.448 145.346 75.709 143.816Z" fill="#F1AC85"/>
<path d="M77.0361 142.02C77.0361 142.22 77.1689 142.419 77.5007 142.619C77.5671 142.685 77.5007 141.422 77.7662 141.621C77.8325 141.688 81.881 144.88 84.2038 144.281C84.4693 144.215 84.5356 144.015 84.5356 143.816V143.284C84.5356 142.685 83.7392 141.821 82.4119 140.557C80.9518 139.161 80.089 138.296 77.9653 139.493C77.368 139.826 77.1025 140.092 77.1025 140.358L77.0361 142.02Z" fill="#010400"/>
<path d="M82.4115 140.557C84.1371 142.22 85.0662 143.217 84.2035 143.749C83.3407 144.281 81.5488 143.483 79.7569 142.087C78.1641 140.89 75.8412 140.757 77.9649 139.493C80.0887 138.296 80.9515 139.161 82.4115 140.557Z" fill="#484968"/>
<path d="M80.6865 139.76L80.5538 124.198L75.4436 125.861L76.3063 128.388C76.3063 128.388 75.9081 131.779 76.97 135.238C76.97 135.238 77.7 136.767 77.5673 140.225C77.5009 140.159 79.4256 141.223 80.6865 139.76Z" fill="#E28C66"/>
<path d="M68.6074 124.597V130.316C68.6074 130.316 75.3104 132.577 81.6816 124.597V119.011L68.6074 124.597Z" fill="#9CE3F0"/>
<path d="M71.8596 126.792C71.926 126.858 71.9923 126.858 72.0587 126.858C73.187 126.925 77.2353 126.06 81.2837 121.472C81.6156 121.073 81.8147 120.607 81.8147 120.142V107.174C81.8147 106.176 81.4829 105.511 80.8856 105.179L77.8327 103.383C77.3017 103.051 76.5053 103.117 75.6425 103.583L71.4614 105.977C69.8022 106.974 68.4085 109.302 68.4085 111.297V124.398C68.4085 124.73 68.5412 124.93 68.674 124.996L71.8596 126.792Z" fill="#54A5F8"/>
<path d="M72.9875 106.841C72.9875 107.173 73.1866 107.506 73.5848 107.705C74.4475 108.171 75.7749 108.171 76.6376 107.705C77.0358 107.439 77.3013 107.107 77.235 106.841V103.981C77.235 103.649 77.0358 103.316 76.6376 103.117C75.7749 102.651 74.4475 102.651 73.5848 103.117C73.1866 103.383 72.9211 103.715 72.9875 103.981V106.841Z" fill="#DD936F"/>
<path d="M73.1865 102.851C73.1865 103.583 72.7219 103.849 72.0582 103.516C71.4608 103.184 70.9298 102.319 70.9298 101.587C70.9298 100.856 71.3944 100.59 72.0582 100.922C72.6555 101.255 73.1865 102.119 73.1865 102.851Z" fill="#F9AB83"/>
<path d="M78.9609 110.432C78.9609 110.432 84.6685 105.245 81.2174 95.9346L78.5627 105.577L78.9609 110.432Z" fill="#3F4893"/>
<path d="M73.7628 105.217C70.5887 104.464 68.6254 101.274 69.3777 98.0936C70.1299 94.9131 73.3129 92.9458 76.4869 93.6996C79.661 94.4534 81.6243 97.6428 80.8721 100.823C80.1198 104.004 76.9369 105.971 73.7628 105.217Z" fill="#F1AC85"/>
<path d="M76.9031 110.432C76.9031 110.432 72.5228 105.577 75.5757 96.5332L81.0842 98.3952C81.0842 98.3952 82.9425 93.7401 76.7703 92.3435C76.7703 92.3435 72.6556 91.4125 71.1955 94.8706C71.1955 94.8706 67.8771 95.1366 69.1381 101.986C69.0717 102.119 69.2708 108.57 76.9031 110.432Z" fill="#3F4893"/>
<path d="M72.9884 121.405C72.1256 121.671 71.1301 121.139 70.931 120.208L68.3427 110.499C68.0772 109.634 68.6082 108.637 69.5373 108.437C70.4001 108.171 71.3956 108.703 71.5947 109.634L74.183 119.343C74.3821 120.208 73.9175 121.139 72.9884 121.405Z" fill="#F9AB83"/>
<path d="M82.4122 121.738C82.2131 122.669 81.3504 123.201 80.4212 123.068L72.5899 121.472C71.6608 121.472 70.8644 120.74 70.8644 119.809C70.8644 118.878 71.5944 118.08 72.5235 118.08L81.1513 119.743C82.0804 119.942 82.6114 120.807 82.4122 121.738Z" fill="#F9AB83"/>
<path d="M188.865 161.44V103.184C188.865 101.721 188.068 100.324 186.807 99.5929L116.923 59.2263C114.202 57.6302 110.751 59.6253 110.751 62.8174V121.073C110.751 122.536 111.547 123.933 112.808 124.664L182.626 165.031C185.414 166.56 188.865 164.632 188.865 161.44Z" fill="white"/>
<path d="M184.683 164.166C186.01 164.166 187.404 163.102 187.404 161.44V103.184C187.404 102.187 186.873 101.322 186.01 100.79L116.259 60.4234C115.86 60.1574 115.396 60.0244 114.865 60.0244C113.538 60.0244 112.144 61.0884 112.144 62.751V121.007C112.144 122.004 112.675 122.869 113.538 123.401L183.356 163.834C183.754 164.033 184.218 164.166 184.683 164.166Z" fill="url(#paint16_linear_914_429)"/>
<path d="M188.865 161.44V103.184C188.865 101.721 188.068 100.325 186.807 99.593L116.923 59.2264C115.794 58.5614 114.467 58.4949 113.405 58.9604L115.064 58.0959C116.325 57.1649 118.051 56.9653 119.577 57.8299L189.395 98.263C190.656 98.9945 191.453 100.391 191.453 101.854V160.11C191.453 161.506 190.789 162.703 189.727 163.435H189.661C189.396 163.634 189.064 163.767 188.798 163.9L186.94 164.898C188.068 164.1 188.865 162.903 188.865 161.44Z" fill="url(#paint17_linear_914_429)"/>
<path d="M182.626 172.147L132.32 201.275C131.059 202.006 129.466 202.006 128.205 201.275L58.3207 160.842C55.5997 159.246 55.5997 155.255 58.3207 153.659L108.627 124.532C109.888 123.8 111.481 123.8 112.742 124.532L182.626 165.031C185.414 166.561 185.414 170.551 182.626 172.147Z" fill="white"/>
<path d="M58.3207 160.842L128.205 201.275C129.466 202.006 131.059 202.006 132.32 201.275L182.626 172.147C184.02 171.349 184.684 169.953 184.684 168.556V172.347C184.684 173.743 184.02 175.14 182.626 175.938L132.32 205.065C131.059 205.797 129.466 205.797 128.205 205.065L58.3871 164.632C57.0597 163.901 56.3961 162.571 56.3297 161.241V161.174C56.3297 161.108 56.3297 160.975 56.3297 160.908V157.45C56.3297 158.78 56.9934 160.11 58.3207 160.842Z" fill="url(#paint18_linear_914_429)"/>
<path d="M84.403 149.47L144.399 184.118C146.722 185.448 150.836 185.315 153.557 183.719L171.609 173.278C174.33 171.682 174.596 169.354 172.273 168.024L112.277 133.31C109.954 131.98 105.84 132.113 103.118 133.709L85.0666 144.15C82.3456 145.746 82.0801 148.074 84.403 149.47Z" fill="#B8D0F6"/>
<path d="M172.207 168.889L112.211 134.175C109.888 132.845 105.773 132.978 103.052 134.574L85.0005 145.014C83.7395 145.746 83.0095 146.677 82.8104 147.608C82.5449 146.477 83.3413 145.147 85.0005 144.216L103.052 133.776C105.773 132.18 109.822 132.047 112.211 133.377L172.207 168.091C173.401 168.822 173.932 169.753 173.733 170.817C173.601 170.019 173.07 169.354 172.207 168.889Z" fill="#99B6E0"/>
<path d="M123.825 149.203L127.011 147.341L130.196 149.203L127.011 151.065L123.825 149.203ZM130.063 152.794L133.249 150.932L136.435 152.794L133.249 154.656L130.063 152.794ZM117.52 145.612L120.706 143.75L123.891 145.612L120.706 147.474L117.52 145.612ZM99.4018 147.541L92.7651 143.683L95.9507 141.821L102.587 145.678L99.4018 147.541ZM98.1409 140.558L101.326 138.696L104.512 140.558L101.326 142.42L98.1409 140.558ZM111.282 141.954L114.467 140.092L117.653 141.954L114.467 143.816L111.282 141.954ZM136.302 156.452L139.488 154.59L142.673 156.452L139.488 158.314L136.302 156.452ZM103.649 146.277L158.469 177.998L155.283 179.86L100.464 148.139L103.649 146.277ZM142.54 160.043L145.726 158.181L148.912 160.043L145.726 161.905L142.54 160.043ZM106.171 141.555L163.844 174.939L160.659 176.801L102.986 143.417L106.171 141.555ZM90.575 144.947L153.093 181.124L149.907 182.986L87.3894 146.809L90.575 144.947ZM155.084 167.292L158.269 165.43L161.455 167.292L158.269 169.154L155.084 167.292ZM148.845 163.7L152.031 161.838L155.217 163.7L152.031 165.563L148.845 163.7Z" fill="#99B6E0"/>
<path d="M123.825 148.672L127.011 146.81L130.196 148.672L127.011 150.534L123.825 148.672ZM130.063 152.263L133.249 150.401L136.435 152.263L133.249 154.125L130.063 152.263ZM117.52 145.014L120.706 143.152L123.891 145.014L120.706 146.876L117.52 145.014ZM99.4018 146.943L92.7651 143.086L95.9507 141.224L102.587 145.081L99.4018 146.943ZM98.1409 140.027L101.326 138.165L104.512 140.027L101.326 141.889L98.1409 140.027ZM111.282 141.423L114.467 139.561L117.653 141.423L114.467 143.285L111.282 141.423ZM136.302 155.854L139.488 153.992L142.673 155.854L139.488 157.716L136.302 155.854ZM103.649 145.746L158.469 177.467L155.283 179.329L100.464 147.608L103.649 145.746ZM142.54 159.512L145.726 157.65L148.912 159.512L145.726 161.374L142.54 159.512ZM106.171 140.958L163.844 174.342L160.659 176.204L102.986 142.82L106.171 140.958ZM90.575 144.416L153.093 180.593L149.907 182.455L87.3894 146.278L90.575 144.416ZM155.084 166.76L158.269 164.898L161.455 166.76L158.269 168.622L155.084 166.76ZM148.845 163.103L152.031 161.241L155.217 163.103L152.031 164.965L148.845 163.103Z" fill="#E4F2FF"/>
<path d="M120.706 143.485L117.785 145.214L117.52 145.081L120.706 143.219L123.891 145.081L123.626 145.214L120.706 143.485ZM114.467 139.827L111.547 141.556L111.282 141.423L114.467 139.561L117.653 141.423L117.387 141.556L114.467 139.827ZM127.011 147.076L124.09 148.805L123.825 148.672L127.011 146.81L130.196 148.672L129.931 148.805L127.011 147.076ZM102.322 145.28L95.9507 141.556L93.0306 143.285L92.7651 143.152L95.9507 141.29L102.587 145.147L102.322 145.28ZM133.249 150.733L130.329 152.462L130.063 152.329L133.249 150.467L136.435 152.329L136.169 152.462L133.249 150.733ZM101.326 138.431L98.4063 140.16L98.1408 140.027L101.326 138.165L104.512 140.027L104.247 140.16L101.326 138.431ZM90.575 144.416L153.093 180.593L152.827 180.726L90.5086 144.682L87.5885 146.411L87.323 146.278L90.575 144.416ZM103.251 142.953L102.986 142.82L106.171 140.958L163.844 174.342L163.579 174.475L106.171 141.224L103.251 142.953ZM158.269 165.164L155.349 166.893L155.084 166.76L158.269 164.898L161.455 166.76L161.19 166.893L158.269 165.164ZM100.729 147.741L100.464 147.608L103.649 145.746L158.469 177.467L158.203 177.6L103.649 146.012L100.729 147.741ZM151.965 161.573L149.044 163.302L148.779 163.169L151.965 161.307L155.15 163.169L154.885 163.302L151.965 161.573ZM139.488 154.325L136.567 156.054L136.302 155.921L139.488 154.058L142.673 155.921L142.408 156.054L139.488 154.325ZM145.726 157.916L142.806 159.645L142.54 159.512L145.726 157.65L148.912 159.512L148.646 159.645L145.726 157.916Z" fill="white"/>
<path d="M89.314 169.819L108.029 180.659C109.158 181.324 111.215 181.258 112.542 180.46L116.657 178.066C117.985 177.268 118.117 176.137 116.989 175.406L98.2735 164.566C97.1453 163.901 95.0879 163.967 93.7606 164.765L89.6458 167.159C88.3185 167.957 88.1194 169.154 89.314 169.819Z" fill="#B8D0F6"/>
<path d="M116.989 176.004L98.2739 165.164C97.1457 164.499 95.0883 164.566 93.761 165.364L89.6462 167.758C89.0489 168.09 88.7171 168.556 88.5844 168.955C88.4516 168.356 88.7835 167.691 89.6462 167.159L93.761 164.765C95.0883 163.967 97.1457 163.901 98.2739 164.566L116.989 175.472C117.653 175.871 117.852 176.337 117.719 176.869C117.587 176.536 117.388 176.204 116.989 176.004Z" fill="#99B6E0"/>
<path d="M122.033 80.3744V78.2463C122.033 76.3842 123.361 75.6527 124.954 76.5837L174.729 105.379C176.322 106.31 177.649 108.571 177.649 110.433V112.561L122.033 80.3744Z" fill="white"/>
<path d="M172.472 106.843C172.472 107.574 173.003 108.505 173.667 108.838C174.33 109.237 174.861 108.904 174.861 108.173C174.861 107.441 174.33 106.51 173.667 106.177C172.936 105.778 172.472 106.044 172.472 106.843Z" fill="white"/>
<path d="M168.357 104.449C168.357 105.18 168.888 106.111 169.552 106.444C170.216 106.843 170.747 106.51 170.747 105.779C170.747 105.047 170.216 104.116 169.552 103.784C168.888 103.384 168.357 103.717 168.357 104.449Z" fill="white"/>
<path d="M164.242 102.054C164.242 102.786 164.773 103.717 165.437 104.049C166.1 104.448 166.631 104.116 166.631 103.384C166.631 102.653 166.1 101.722 165.437 101.389C164.773 101.057 164.242 101.323 164.242 102.054Z" fill="white"/>
<path d="M168.756 117.882L177.583 122.936V114.956L168.756 109.835V117.882Z" fill="white" fill-opacity="0.4"/>
<path d="M157.805 111.498L166.565 116.618V108.572L157.805 103.518V111.498Z" fill="white" fill-opacity="0.9"/>
<path opacity="0.7" d="M146.788 105.114L155.615 110.234V102.187L146.788 97.1333V105.114Z" fill="white"/>
<path d="M143.735 103.384L122.033 90.8154V89.1528L143.735 101.722V103.384Z" fill="url(#paint19_linear_914_429)"/>
<path d="M143.735 100.258L122.033 87.623V85.9604L143.735 98.5293V100.258Z" fill="url(#paint20_linear_914_429)"/>
<path d="M143.735 97.066L122.033 84.4971V82.7681L143.735 95.4034V97.066Z" fill="url(#paint21_linear_914_429)"/>
<path d="M123.958 109.103L175.658 139.029C176.72 139.628 177.583 138.963 177.583 137.566V127.923C177.583 126.527 176.72 124.864 175.658 124.266L123.958 94.3399C122.896 93.7414 122.033 94.4064 122.033 95.803V105.446C122.033 106.909 122.896 108.505 123.958 109.103Z" fill="white"/>
<path d="M154.885 124.864L161.588 128.788V120.408L154.885 116.485V124.864Z" fill="#99CFFF"/>
<path d="M146.389 120.009L153.159 123.866V116.884L146.389 112.96V120.009Z" fill="#98EF7A"/>
<path d="M137.961 115.088L144.73 119.012V108.771L137.961 104.847V115.088Z" fill="#F97F58"/>
<path d="M125.816 107.042L123.958 106.045V104.315L125.816 105.38V107.042Z" fill="#F97F58"/>
<path d="M125.816 103.916L123.958 102.852V101.189L125.816 102.187V103.916Z" fill="#F97F58"/>
<path d="M125.816 100.724L123.958 99.6603V97.9976L125.816 99.0617V100.724Z" fill="#F97F58"/>
<path d="M136.037 113.026L126.679 107.573V105.911L136.037 111.297V113.026Z" fill="url(#paint22_linear_914_429)"/>
<path d="M136.037 109.835L126.679 104.382V102.719L136.037 108.172V109.835Z" fill="url(#paint23_linear_914_429)"/>
<path d="M136.037 106.642L126.679 101.255V99.5264L136.037 104.98V106.642Z" fill="url(#paint24_linear_914_429)"/>
<path d="M173.733 126.792L175.525 127.857V129.519L173.733 128.455V126.792Z" fill="#99CFFF"/>
<path d="M173.733 129.985L175.525 130.982V132.712L173.733 131.648V129.985Z" fill="#99CFFF"/>
<path d="M173.733 133.11L175.525 134.174V135.837L173.733 134.773V133.11Z" fill="#99CFFF"/>
<path d="M163.446 120.874L172.87 126.261V127.99L163.446 122.537V120.874Z" fill="url(#paint25_linear_914_429)"/>
<path d="M163.446 124L172.87 129.453V131.115L163.446 125.662V124Z" fill="url(#paint26_linear_914_429)"/>
<path d="M163.446 127.192L172.87 132.579V134.308L163.446 128.854V127.192Z" fill="url(#paint27_linear_914_429)"/>
<path d="M125.75 118.347L173.069 145.746C174.065 146.344 174.861 145.679 174.861 144.416C174.861 143.086 174.065 141.556 173.069 141.024L125.75 113.625C124.754 113.027 123.958 113.692 123.958 114.955C123.958 116.219 124.754 117.815 125.75 118.347Z" fill="white"/>
<path d="M174.994 153.593L219.858 179.528C221.252 180.326 222.38 179.462 222.38 177.6V135.105C222.38 133.243 221.252 131.049 219.858 130.25L174.994 104.315C173.6 103.517 172.472 104.381 172.472 106.243V148.738C172.472 150.667 173.6 152.795 174.994 153.593Z" fill="url(#paint28_linear_914_429)"/>
<path d="M176.387 149.27L218.531 173.609V170.484L176.387 146.078V149.27Z" fill="url(#paint29_linear_914_429)"/>
<path d="M184.418 130.051C184.418 138.364 190.258 148.472 197.426 152.662C204.593 156.851 210.434 153.46 210.434 145.147C210.434 136.834 204.593 126.726 197.426 122.536C190.258 118.347 184.418 121.738 184.418 130.051Z" fill="url(#paint30_linear_914_429)"/>
<path d="M82.8769 88.4206L127.741 114.356C129.135 115.154 130.263 114.29 130.263 112.428V79.2433C130.263 77.3813 129.135 75.1867 127.741 74.3887L82.8769 48.453C81.4832 47.655 80.3549 48.5195 80.3549 50.3815V83.5659C80.3549 85.4945 81.4832 87.6226 82.8769 88.4206Z" fill="url(#paint31_linear_914_429)"/>
<path d="M84.2699 82.8351L126.347 107.241V104.049L84.2699 79.7095V82.8351Z" fill="url(#paint32_linear_914_429)"/>
<path d="M84.2699 76.384L126.347 100.724V97.5316L84.2699 73.1919V76.384Z" fill="url(#paint33_linear_914_429)"/>
<path d="M114.201 86.093L125.484 92.6766V79.5758L114.201 73.0586V86.093Z" fill="url(#paint34_linear_914_429)"/>
<path d="M99.6671 77.7142L110.949 84.2313V71.1305L99.6671 64.6133V77.7142Z" fill="url(#paint35_linear_914_429)"/>
<path d="M85.0662 69.2683L96.415 75.852V62.7512L85.0662 56.1675V69.2683Z" fill="url(#paint36_linear_914_429)"/>
<path d="M209.139 233.627L233.23 247.592C234.956 248.589 238.075 248.456 240.132 247.326L263.228 233.959C265.285 232.762 265.485 230.966 263.693 229.969L239.601 216.004C237.876 215.006 234.757 215.139 232.699 216.27L209.603 229.636C207.612 230.833 207.347 232.629 209.139 233.627Z" fill="#E8F2FE"/>
<path d="M208.01 276.188V232.23C208.143 232.762 208.475 233.227 209.138 233.627L233.23 247.592C234.092 248.057 235.221 248.323 236.415 248.257V292.813C235.221 292.813 234.092 292.614 233.23 292.148L209.138 278.183C208.209 277.651 207.811 276.919 208.01 276.188Z" fill="url(#paint37_linear_914_429)"/>
<path d="M240.066 247.326L263.162 233.959C264.157 233.427 264.688 232.695 264.821 232.03V275.988C265.02 276.853 264.423 277.85 263.162 278.582L240.066 291.948C239.004 292.547 237.677 292.807 236.349 292.807V248.323C237.677 248.257 239.07 247.924 240.066 247.326Z" fill="url(#paint38_linear_914_429)"/>
<path d="M60.5109 208.191C60.71 208.257 60.7764 208.523 60.8428 208.856C60.8428 208.989 59.7809 208.257 59.8473 208.59C59.8473 208.723 60.6437 213.777 58.9845 215.44C58.7854 215.639 58.5863 215.573 58.3872 215.506L57.9226 215.24C57.3917 214.974 57.0599 213.844 56.5953 212.048C56.0644 210.119 55.7989 208.922 57.9226 207.659C58.5199 207.326 58.8518 207.193 59.0509 207.326L60.5109 208.191Z" fill="#010400"/>
<path d="M56.5952 212.115C57.1925 214.442 57.5907 215.772 58.5199 215.24C59.3826 214.708 59.5817 212.78 59.3163 210.519C59.0508 208.524 60.0463 206.462 57.9226 207.725C55.7988 208.989 56.0643 210.186 56.5952 212.115Z" fill="#484968"/>
<path d="M42.9234 197.218L47.3036 198.814L49.0955 200.809C49.0955 200.809 52.2148 202.139 54.6704 204.732C54.6704 204.732 55.5995 206.129 58.7188 207.659C58.7188 207.659 58.7188 209.853 56.7941 210.186L44.3835 203.003C43.5207 202.471 42.9234 201.607 42.857 200.609C42.7243 199.878 42.7243 198.747 42.9234 197.218Z" fill="#E28C66"/>
<path d="M52.0823 219.163C52.0823 219.363 51.9496 219.562 51.6177 219.762C51.5514 219.828 51.6177 218.565 51.3523 218.764C51.2859 218.831 47.2375 221.957 44.981 221.425C44.7155 221.358 44.6492 221.159 44.6492 220.959V220.427C44.6492 219.828 45.4456 218.964 46.7729 217.7C48.1666 216.304 49.0958 215.439 51.2195 216.703C51.8168 217.035 52.0823 217.301 52.0823 217.567V219.163Z" fill="#2D0D60"/>
<path d="M46.7059 217.7C44.9804 219.363 44.0513 220.36 44.914 220.892C45.7768 221.424 47.5687 220.626 49.3606 219.23C50.9534 218.033 53.2762 217.9 51.1525 216.636C49.0951 215.439 48.166 216.304 46.7059 217.7Z" fill="#484968"/>
<path d="M48.4319 216.902L48.5646 201.407L52.7457 202.804L52.8121 205.663C52.8121 205.663 53.2103 209.055 52.1484 212.447C52.1484 212.447 51.4184 213.91 51.5512 217.434C51.6175 217.368 49.6929 218.432 48.4319 216.902Z" fill="#F1AC85"/>
<path d="M37.0167 195.156C37.8795 195.555 38.875 195.156 39.2068 194.291L45.8436 179.594C46.2418 178.73 45.8436 177.732 44.9808 177.4C44.118 177.001 43.1225 177.4 42.7907 178.264L36.1539 192.961C35.7557 193.759 36.154 194.823 37.0167 195.156Z" fill="#E28C66"/>
<path d="M36.3531 193.494L46.7727 187.509V179.063L36.3531 185.115V193.494Z" fill="url(#paint39_linear_914_429)"/>
<path d="M38.9414 191.233V184.849L38.6759 184.982V191.366L38.9414 191.233Z" fill="#A29AFB"/>
<path d="M39.4058 189.039V184.583L39.2066 184.716V189.172L39.4058 189.039Z" fill="#A29AFB"/>
<path d="M39.9368 190.169V184.25L39.6713 184.383V190.302L39.9368 190.169Z" fill="#A29AFB"/>
<path d="M40.4014 190.369V183.984L40.2022 184.117V190.502L40.4014 190.369Z" fill="#A29AFB"/>
<path d="M40.9324 186.046V183.652L40.7333 183.785V186.179L40.9324 186.046Z" fill="#A29AFB"/>
<path d="M55.5332 197.75V203.469C55.5332 203.469 48.8301 205.73 42.5253 197.75V192.23L55.5332 197.75Z" fill="#FF9100"/>
<path d="M52.48 199.546C52.4137 199.612 52.3473 199.612 52.2809 199.612C51.1527 199.679 47.1043 198.814 43.0559 194.226C42.7241 193.827 42.525 193.361 42.525 192.895V179.928C42.525 178.93 42.8568 178.265 43.4541 177.933L46.507 176.137C47.0379 175.805 47.8343 175.871 48.6971 176.337L52.8119 178.731C54.471 179.728 55.8647 182.056 55.8647 183.984V197.019C55.8647 197.351 55.732 197.551 55.5993 197.617L52.48 199.546Z" fill="#FFFFEB"/>
<path d="M51.2857 179.661C51.2857 179.994 51.0866 180.326 50.6884 180.526C49.8257 180.991 48.4983 180.991 47.6355 180.526C47.2373 180.26 46.9719 179.927 47.0382 179.661V176.802C47.0382 176.469 47.2373 176.137 47.6355 175.937C48.4983 175.472 49.8257 175.472 50.6884 175.937C51.0866 176.203 51.3521 176.536 51.2857 176.802V179.661Z" fill="#DD936F"/>
<path d="M62.7672 198.149C63.5636 197.75 63.8955 196.686 63.4973 195.888L56.1969 181.391C55.7987 180.593 54.7369 180.26 53.9405 180.659C53.144 181.058 52.8122 182.122 53.2104 182.92L60.5108 197.418C60.909 198.282 61.9045 198.615 62.7672 198.149Z" fill="#F9AB83"/>
<path d="M43.7201 170.75L41.5963 178.996C41.3972 179.794 42.1936 180.459 42.9237 180.127L47.7685 178.065C48.1667 177.866 48.4322 177.467 48.3658 177.001L46.773 168.888C46.5739 168.024 45.4456 167.824 44.9811 168.556L43.8528 170.484C43.7865 170.551 43.7201 170.617 43.7201 170.75Z" fill="#943BBB"/>
<path d="M51.1527 175.671C51.1527 176.402 51.6173 176.669 52.2811 176.336C52.8784 176.003 53.4094 175.139 53.4094 174.407C53.4094 173.676 52.9448 173.41 52.2811 173.742C51.6173 174.075 51.1527 174.939 51.1527 175.671Z" fill="#F9AB83"/>
<path d="M49.1622 178.199C45.9 178.199 43.2555 175.549 43.2555 172.28C43.2555 169.011 45.9 166.361 49.1622 166.361C52.4244 166.361 55.0688 169.011 55.0688 172.28C55.0688 175.549 52.4244 178.199 49.1622 178.199Z" fill="#F9AB83"/>
<path d="M54.9357 173.078C54.9357 173.078 49.9581 175.804 47.5026 168.689C47.5026 168.689 46.1752 171.681 42.9896 171.016C42.9896 171.016 42.9896 166.361 47.8344 165.43C47.768 165.43 56.3294 164.565 54.9357 173.078Z" fill="#943BBB"/>
<path d="M52.1488 173.343L50.0251 181.59C49.826 182.388 50.6224 183.053 51.3524 182.72L56.1972 180.659C56.5954 180.459 56.8609 180.06 56.7945 179.595L55.2017 171.481C55.0026 170.617 53.8744 170.417 53.4098 171.149L52.2816 173.077C52.2152 173.144 52.2152 173.21 52.1488 173.343Z" fill="#943BBB"/>
<path d="M99.2688 198.613C99.3352 199.278 98.2733 200.276 96.6805 201.207C94.5567 202.404 93.8267 203.934 91.2384 202.471C90.5083 202.072 90.1765 201.672 90.1765 201.406V199.81C90.1102 199.079 91.9021 198.613 93.4285 197.682C95.5522 196.485 97.8087 195.82 98.8706 196.419C99.136 196.552 99.2688 196.751 99.2688 197.017V198.613Z" fill="black"/>
<path d="M96.6809 199.544C98.8047 198.347 99.9329 197.017 98.871 196.419C97.8091 195.82 95.5527 196.485 93.4289 197.682C91.3051 198.879 88.6504 199.345 91.2388 200.808C93.8271 202.271 94.6235 200.741 96.6809 199.544Z" fill="#2D0D60"/>
<path d="M93.4285 194.558C93.4948 195.223 92.4329 196.22 90.8401 197.151C88.7164 198.348 87.9863 199.878 85.398 198.415C84.668 198.016 84.3361 197.617 84.3361 197.351V195.755C84.2698 195.023 86.0617 194.558 87.5881 193.627C89.7119 192.43 91.9684 191.765 93.0302 192.363C93.2957 192.496 93.4285 192.696 93.4285 192.962V194.558Z" fill="black"/>
<path d="M90.8406 195.489C92.9643 194.292 94.0926 192.962 93.0307 192.363C91.9688 191.765 89.7123 192.43 87.5886 193.627C85.4649 194.824 82.8102 195.289 85.3985 196.752C87.9868 198.282 88.7832 196.686 90.8406 195.489Z" fill="#2D0D60"/>
<path d="M95.7517 146.21C94.9553 145.678 93.8934 145.944 93.3625 146.742L86.1948 158.181C85.6639 158.979 85.9294 160.043 86.7258 160.575C87.5222 161.107 88.584 160.841 89.115 160.043L96.2826 148.604C96.8135 147.806 96.5481 146.676 95.7517 146.21Z" fill="#FCC4B7"/>
<path d="M91.0396 158.713L88.7167 162.37C87.9203 163.634 86.2611 163.966 85.0665 163.235C83.8055 162.437 83.4737 160.774 84.2037 159.577L86.5266 155.92C86.5266 155.853 89.4467 154.789 91.0396 158.713Z" fill="#293677"/>
<path d="M90.2427 199.013C90.1764 198.88 90.11 198.681 90.11 198.481V180.393C90.11 179.262 91.3046 178.331 92.6983 178.331C94.1584 178.331 95.2866 179.262 95.2866 180.393V200.077C95.2866 200.343 95.0875 200.609 94.8221 200.676C93.8929 201.008 91.5037 201.407 90.2427 199.013Z" fill="#55D1FF"/>
<path d="M84.4029 194.757C84.3365 194.624 84.2701 194.425 84.2701 194.225L84.6684 176.137C84.6684 175.006 85.863 174.075 87.3231 174.142C88.7831 174.142 89.9114 175.139 89.9114 176.27L89.5132 195.888C89.5132 196.154 89.3141 196.42 89.0486 196.486C87.9867 196.819 85.5975 197.218 84.4029 194.757Z" fill="#55D1FF"/>
<path d="M94.4906 183.65C94.4242 183.717 94.3578 183.717 94.2915 183.717C93.1632 183.783 88.9821 182.919 84.801 178.197C84.4692 177.798 84.27 177.266 84.27 176.867V163.567C84.27 162.569 84.6019 161.838 85.1992 161.505L88.3184 159.71C88.9157 159.377 89.6458 159.444 90.5749 159.909L94.8224 162.37C96.548 163.367 97.9417 165.828 97.9417 167.823V181.19C97.9417 181.522 97.8089 181.722 97.6098 181.855L94.4906 183.65Z" fill="#5258A6"/>
<path d="M93.2959 163.168C93.2959 163.501 93.0968 163.833 92.6322 164.099C91.7695 164.565 90.3758 164.565 89.513 164.099C89.0485 163.833 88.8494 163.501 88.8494 163.168V160.242C88.8494 159.91 89.0485 159.577 89.513 159.311C90.3758 158.846 91.7695 158.846 92.6322 159.311C93.0968 159.577 93.2959 159.91 93.2959 160.242V163.168Z" fill="#F1AC85"/>
<path d="M91.1061 161.705C87.7706 161.705 85.0667 158.995 85.0667 155.653C85.0667 152.311 87.7706 149.602 91.1061 149.602C94.4416 149.602 97.1455 152.311 97.1455 155.653C97.1455 158.995 94.4416 161.705 91.1061 161.705Z" fill="#FCC4B7"/>
<path d="M101.592 182.52C102.521 182.188 102.985 181.257 102.654 180.326L98.0743 167.956C97.7424 167.025 96.8133 166.56 95.8841 166.892C94.955 167.225 94.4904 168.156 94.8223 169.087L99.4016 181.456C99.7334 182.387 100.663 182.853 101.592 182.52Z" fill="#FCC4B7"/>
<path d="M94.6226 171.414L93.2289 167.291C92.7643 165.895 93.4944 164.365 94.8881 163.9C96.2818 163.434 97.8082 164.166 98.2728 165.562L99.6665 169.685C99.6665 169.685 98.671 172.611 94.6226 171.414Z" fill="#293677"/>
<path fill-rule="evenodd" clip-rule="evenodd" d="M87.6543 161.174C89.5789 162.305 91.039 161.44 91.5699 160.642C92.8972 158.58 93.0963 159.977 93.8927 158.979C94.8883 157.317 94.6892 154.989 96.0829 153.925C98.1402 152.396 97.5429 149.403 92.2336 148.007C85.1323 146.211 82.2785 155.189 86.7251 160.376C87.057 160.841 87.2561 160.974 87.6543 161.174Z" fill="#E58800"/>
<path d="M93.2294 159.312C93.7604 159.844 94.2914 159.644 94.4905 158.979C94.6897 158.248 94.4241 157.317 93.8932 156.784C93.3622 156.252 92.8312 156.452 92.6321 157.117C92.4329 157.782 92.6984 158.78 93.2294 159.312Z" fill="#FCC4B7"/>
<path d="M124.091 231.001C124.754 231.467 125.75 231.334 126.214 230.602L133.116 220.826C133.581 220.161 133.448 219.164 132.718 218.698C132.055 218.233 131.059 218.366 130.595 219.097L123.692 228.873C123.228 229.538 123.427 230.469 124.091 231.001Z" fill="#FCC4B7"/>
<path d="M128.869 220.094L131.126 216.969C131.856 215.905 133.382 215.639 134.444 216.37C135.506 217.102 135.771 218.631 135.041 219.695L132.785 222.821C132.718 222.887 130.13 223.685 128.869 220.094Z" fill="#BDCEFA"/>
<path d="M136.634 232.663C136.568 232.796 136.435 232.929 136.302 232.995L128.272 237.584C127.409 238.116 126.148 237.584 125.551 236.52C124.887 235.389 125.086 234.126 126.015 233.594L135.307 228.274C135.506 228.141 135.838 228.207 135.97 228.34C136.568 229.005 137.895 230.601 136.634 232.663Z" fill="#5258A6"/>
<path d="M141.943 235.39C141.877 235.523 141.744 235.656 141.612 235.722L133.581 240.311C132.718 240.843 131.457 240.311 130.86 239.247C130.196 238.116 130.395 236.853 131.325 236.321L140.616 231.001C140.815 230.868 141.147 230.934 141.28 231.067C141.877 231.732 143.271 233.328 141.943 235.39Z" fill="#5258A6"/>
<path d="M129.333 249.288C129.4 249.953 127.807 250.352 126.48 251.15C124.621 252.214 122.63 252.812 121.635 252.28C121.369 252.147 121.303 251.948 121.303 251.748V250.684C121.237 250.086 122.166 249.088 123.559 247.758C125.086 246.229 126.081 245.298 128.404 246.628C129.068 247.027 129.333 247.293 129.333 247.559V249.288Z" fill="#010400"/>
<path d="M123.56 247.692C121.701 249.487 120.706 250.551 121.635 251.15C122.564 251.682 124.489 250.884 126.48 249.354C128.205 248.024 130.727 247.891 128.404 246.561C126.082 245.231 125.152 246.162 123.56 247.692Z" fill="#1C1C38"/>
<path d="M125.086 246.362C125.02 246.229 124.953 246.03 124.953 245.897V235.123C124.953 234.126 126.015 233.261 127.276 233.261C128.537 233.261 129.599 234.059 129.599 235.123V247.293C129.599 247.559 129.4 247.759 129.201 247.825C128.272 248.158 126.214 248.49 125.086 246.362Z" fill="#5258A6"/>
<path d="M141.147 236.32C141.081 236.387 141.015 236.387 140.948 236.387C139.953 236.453 136.236 235.655 132.586 231.532C132.254 231.2 132.055 230.734 132.055 230.335V218.564C132.055 217.7 132.387 217.035 132.851 216.769L135.639 215.173C136.17 214.84 136.833 214.907 137.63 215.372L141.413 217.567C142.939 218.431 144.2 220.626 144.2 222.355V234.192C144.2 234.458 144.134 234.658 143.935 234.791L141.147 236.32Z" fill="#FCFDFF"/>
<path d="M134.908 251.682C134.974 252.347 133.381 252.746 132.054 253.544C130.196 254.608 128.205 255.207 127.209 254.675C126.944 254.542 126.877 254.342 126.877 254.143V253.079C126.811 252.48 127.74 251.483 129.134 250.153C130.66 248.623 131.656 247.692 133.979 249.022C134.642 249.421 134.908 249.687 134.908 249.953V251.682Z" fill="#010400"/>
<path d="M129.135 250.153C127.276 251.948 126.281 253.012 127.21 253.611C128.139 254.143 130.064 253.345 132.055 251.815C133.78 250.485 136.302 250.352 133.979 249.022C131.657 247.692 130.661 248.623 129.135 250.153Z" fill="#1C1C38"/>
<path d="M130.595 248.823C130.529 248.69 130.462 248.491 130.462 248.358V237.584C130.462 236.587 131.524 235.722 132.785 235.722C134.046 235.722 135.108 236.52 135.108 237.584V249.754C135.108 250.02 134.909 250.22 134.71 250.286C133.847 250.552 131.723 250.951 130.595 248.823Z" fill="#5258A6"/>
<path d="M140.749 218.165C140.749 218.431 140.55 218.764 140.152 218.963C139.422 219.429 138.161 219.429 137.364 218.963C136.966 218.764 136.767 218.431 136.767 218.165V215.571C136.767 215.305 136.966 214.973 137.364 214.773C138.094 214.308 139.355 214.308 140.152 214.773C140.55 214.973 140.749 215.305 140.749 215.571V218.165Z" fill="#F1AC85"/>
<path d="M138.758 216.902C135.789 216.902 133.382 214.49 133.382 211.515C133.382 208.54 135.789 206.128 138.758 206.128C141.726 206.128 144.133 208.54 144.133 211.515C144.133 214.49 141.726 216.902 138.758 216.902Z" fill="#FCC4B7"/>
<path d="M141.678 215.771C141.346 215.439 140.815 214.774 140.55 213.976C140.55 213.909 140.55 213.909 140.55 213.843V211.249C140.55 210.717 140.417 210.252 140.152 209.786C139.952 209.387 139.554 209.121 139.09 209.121C139.09 209.121 134.776 210.983 133.183 207.459C133.05 207.193 133.183 206.86 133.515 206.794C133.847 206.727 134.245 206.461 134.709 205.73C134.842 205.53 135.041 205.464 135.24 205.53C135.639 205.663 136.435 205.663 137.165 204.799C137.231 204.666 137.364 204.666 137.497 204.666C138.293 204.666 141.147 204.799 142.674 205.929C143.005 206.195 148.315 210.784 142.275 215.771C142.143 215.904 141.811 215.904 141.678 215.771Z" fill="#331202"/>
<path d="M140.55 214.574C140.55 215.239 141.014 215.505 141.545 215.173C142.076 214.84 142.541 214.042 142.541 213.443C142.541 212.778 142.076 212.512 141.545 212.845C141.014 213.111 140.55 213.909 140.55 214.574Z" fill="#FCC4B7"/>
<path d="M125.352 232.995L134.908 238.515L142.275 234.458L132.453 228.872L125.352 232.995Z" fill="#BBBEB5"/>
<path d="M125.352 232.995L123.825 223.353L134.444 229.471L134.908 238.515L125.352 232.995Z" fill="#EAEEF1"/>
<path d="M133.714 234.592C134.378 235.058 135.373 234.925 135.838 234.259L142.74 224.484C143.204 223.819 143.072 222.821 142.408 222.356C141.744 221.89 140.749 222.023 140.284 222.688L133.382 232.464C132.851 233.129 133.05 234.126 133.714 234.592Z" fill="#FCC4B7"/>
<path d="M138.824 224.217L140.749 220.892C141.412 219.762 142.872 219.363 144.001 220.028C145.129 220.693 145.527 222.156 144.864 223.286L142.939 226.611C142.872 226.545 140.351 227.609 138.824 224.217Z" fill="#BDCEFA"/>
<defs>
<linearGradient id="paint0_linear_914_429" x1="227.965" y1="31.7071" x2="259.219" y2="98.3192" gradientUnits="userSpaceOnUse">
<stop stop-color="#E4F2FF"/>
<stop offset="0.3075" stop-color="#D7E6FD" stop-opacity="0.6923"/>
<stop offset="0.9993" stop-color="#BDCEFA" stop-opacity="0"/>
</linearGradient>
<linearGradient id="paint1_linear_914_429" x1="206.795" y1="31.1836" x2="183.04" y2="127.456" gradientUnits="userSpaceOnUse">
<stop stop-color="#E4F2FF"/>
<stop offset="0.3075" stop-color="#D7E6FD" stop-opacity="0.6923"/>
<stop offset="0.9993" stop-color="#BDCEFA" stop-opacity="0"/>
</linearGradient>
<linearGradient id="paint2_linear_914_429" x1="150.349" y1="-15.9303" x2="151.409" y2="38.5622" gradientUnits="userSpaceOnUse">
<stop stop-color="#E4F2FF"/>
<stop offset="0.3075" stop-color="#D7E6FD" stop-opacity="0.6923"/>
<stop offset="0.9993" stop-color="#BDCEFA" stop-opacity="0"/>
</linearGradient>
<linearGradient id="paint3_linear_914_429" x1="227.279" y1="95.8242" x2="236.821" y2="166.183" gradientUnits="userSpaceOnUse">
<stop stop-color="#E4F2FF"/>
<stop offset="0.3075" stop-color="#D7E6FD" stop-opacity="0.6923"/>
<stop offset="0.9993" stop-color="#BDCEFA" stop-opacity="0"/>
</linearGradient>
<linearGradient id="paint4_linear_914_429" x1="11.4403" y1="68.9831" x2="58.7137" y2="162.674" gradientUnits="userSpaceOnUse">
<stop stop-color="#E4F2FF"/>
<stop offset="0.0555438" stop-color="#E1EFFF"/>
<stop offset="0.6478" stop-color="#C7D7FB"/>
<stop offset="0.9993" stop-color="#BDCEFA"/>
</linearGradient>
<linearGradient id="paint5_linear_914_429" x1="1.5044" y1="22.453" x2="77.818" y2="135.806" gradientUnits="userSpaceOnUse">
<stop stop-color="#E4F2FF"/>
<stop offset="0.0555438" stop-color="#E1EFFF"/>
<stop offset="0.6478" stop-color="#C7D7FB"/>
<stop offset="0.9993" stop-color="#BDCEFA"/>
</linearGradient>
<linearGradient id="paint6_linear_914_429" x1="18.6732" y1="208.159" x2="119.297" y2="285.605" gradientUnits="userSpaceOnUse">
<stop stop-color="#E4F2FF"/>
<stop offset="0.0555438" stop-color="#E1EFFF"/>
<stop offset="0.6478" stop-color="#C7D7FB"/>
<stop offset="0.9993" stop-color="#BDCEFA"/>
</linearGradient>
<linearGradient id="paint7_linear_914_429" x1="48.4247" y1="207.513" x2="84.0813" y2="239.761" gradientUnits="userSpaceOnUse">
<stop stop-color="#E4F2FF"/>
<stop offset="0.0555438" stop-color="#E1EFFF"/>
<stop offset="0.6478" stop-color="#C7D7FB"/>
<stop offset="0.9993" stop-color="#BDCEFA"/>
</linearGradient>
<linearGradient id="paint8_linear_914_429" x1="2.73075" y1="238.741" x2="97.1135" y2="305.229" gradientUnits="userSpaceOnUse">
<stop stop-color="#E4F2FF"/>
<stop offset="0.0555438" stop-color="#E1EFFF"/>
<stop offset="0.6478" stop-color="#C7D7FB"/>
<stop offset="0.9993" stop-color="#BDCEFA"/>
</linearGradient>
<linearGradient id="paint9_linear_914_429" x1="17.7824" y1="235.057" x2="62.1893" y2="263.081" gradientUnits="userSpaceOnUse">
<stop stop-color="#E4F2FF"/>
<stop offset="0.0555438" stop-color="#E1EFFF"/>
<stop offset="0.6478" stop-color="#C7D7FB"/>
<stop offset="0.9993" stop-color="#BDCEFA"/>
</linearGradient>
<linearGradient id="paint10_linear_914_429" x1="-7.094" y1="143.914" x2="161.177" y2="273.214" gradientUnits="userSpaceOnUse">
<stop stop-color="#E4F2FF"/>
<stop offset="0.0555438" stop-color="#E1EFFF"/>
<stop offset="0.6478" stop-color="#C7D7FB"/>
<stop offset="0.9993" stop-color="#BDCEFA"/>
</linearGradient>
<linearGradient id="paint11_linear_914_429" x1="89.5428" y1="237.89" x2="156.136" y2="228.499" gradientUnits="userSpaceOnUse">
<stop stop-color="#E4F2FF"/>
<stop offset="0.0555438" stop-color="#E1EFFF"/>
<stop offset="0.6478" stop-color="#C7D7FB"/>
<stop offset="0.9993" stop-color="#BDCEFA"/>
</linearGradient>
<linearGradient id="paint12_linear_914_429" x1="133.287" y1="212.081" x2="215.414" y2="293.047" gradientUnits="userSpaceOnUse">
<stop stop-color="#E4F2FF"/>
<stop offset="0.0555438" stop-color="#E1EFFF"/>
<stop offset="0.6478" stop-color="#C7D7FB"/>
<stop offset="0.9993" stop-color="#BDCEFA"/>
</linearGradient>
<linearGradient id="paint13_linear_914_429" x1="91.9693" y1="242.164" x2="215.451" y2="206.387" gradientUnits="userSpaceOnUse">
<stop stop-color="#E4F2FF"/>
<stop offset="0.0555438" stop-color="#E1EFFF"/>
<stop offset="0.6478" stop-color="#C7D7FB"/>
<stop offset="0.9993" stop-color="#BDCEFA"/>
</linearGradient>
<linearGradient id="paint14_linear_914_429" x1="0.941245" y1="159.496" x2="51.0486" y2="161.152" gradientUnits="userSpaceOnUse">
<stop stop-color="#E4F2FF"/>
<stop offset="0.0555438" stop-color="#E1EFFF"/>
<stop offset="0.6478" stop-color="#C7D7FB"/>
<stop offset="0.9993" stop-color="#BDCEFA"/>
</linearGradient>
<linearGradient id="paint15_linear_914_429" x1="55.6068" y1="137.469" x2="94.4699" y2="115.425" gradientUnits="userSpaceOnUse">
<stop stop-color="#E4F2FF"/>
<stop offset="0.0555438" stop-color="#E1EFFF"/>
<stop offset="0.6478" stop-color="#C7D7FB"/>
<stop offset="0.9993" stop-color="#BDCEFA"/>
</linearGradient>
<linearGradient id="paint16_linear_914_429" x1="186.574" y1="112.095" x2="112.144" y2="112.095" gradientUnits="userSpaceOnUse">
<stop stop-color="#A4B7FA"/>
<stop offset="1" stop-color="#ADDDFF"/>
</linearGradient>
<linearGradient id="paint17_linear_914_429" x1="120.569" y1="50.5308" x2="198.736" y2="143.477" gradientUnits="userSpaceOnUse">
<stop stop-color="#E4F2FF"/>
<stop offset="0.0555438" stop-color="#E1EFFF"/>
<stop offset="0.6478" stop-color="#C7D7FB"/>
<stop offset="0.9993" stop-color="#BDCEFA"/>
</linearGradient>
<linearGradient id="paint18_linear_914_429" x1="36.5986" y1="171.221" x2="156.701" y2="186.945" gradientUnits="userSpaceOnUse">
<stop stop-color="#E4F2FF"/>
<stop offset="0.0555438" stop-color="#E1EFFF"/>
<stop offset="0.6478" stop-color="#C7D7FB"/>
<stop offset="0.9993" stop-color="#BDCEFA"/>
</linearGradient>
<linearGradient id="paint19_linear_914_429" x1="143.762" y1="96.2818" x2="122.018" y2="96.2818" gradientUnits="userSpaceOnUse">
<stop stop-color="#FCFDFF" stop-opacity="0"/>
<stop offset="0.796875" stop-color="white"/>
</linearGradient>
<linearGradient id="paint20_linear_914_429" x1="143.762" y1="93.1228" x2="122.018" y2="93.1228" gradientUnits="userSpaceOnUse">
<stop stop-color="#FCFDFF" stop-opacity="0"/>
<stop offset="0.796875" stop-color="white"/>
</linearGradient>
<linearGradient id="paint21_linear_914_429" x1="143.762" y1="89.9304" x2="122.018" y2="89.9304" gradientUnits="userSpaceOnUse">
<stop stop-color="#FCFDFF" stop-opacity="0"/>
<stop offset="0.796875" stop-color="white"/>
</linearGradient>
<linearGradient id="paint22_linear_914_429" x1="136.928" y1="112.875" x2="120.363" y2="102.715" gradientUnits="userSpaceOnUse">
<stop stop-color="#FCFDFF" stop-opacity="0"/>
<stop offset="0.760417" stop-color="#F97F58"/>
</linearGradient>
<linearGradient id="paint23_linear_914_429" x1="136.928" y1="109.684" x2="120.363" y2="99.5235" gradientUnits="userSpaceOnUse">
<stop stop-color="#FCFDFF" stop-opacity="0"/>
<stop offset="0.760417" stop-color="#F97F58"/>
</linearGradient>
<linearGradient id="paint24_linear_914_429" x1="136.928" y1="106.491" x2="120.363" y2="96.3306" gradientUnits="userSpaceOnUse">
<stop stop-color="#FCFDFF" stop-opacity="0"/>
<stop offset="0.760417" stop-color="#F97F58"/>
</linearGradient>
<linearGradient id="paint25_linear_914_429" x1="161.325" y1="119.762" x2="180.065" y2="132.442" gradientUnits="userSpaceOnUse">
<stop stop-color="#FCFDFF" stop-opacity="0"/>
<stop offset="0.807292" stop-color="#99CFFF"/>
</linearGradient>
<linearGradient id="paint26_linear_914_429" x1="161.325" y1="122.888" x2="180.065" y2="135.567" gradientUnits="userSpaceOnUse">
<stop stop-color="#FCFDFF" stop-opacity="0"/>
<stop offset="0.807292" stop-color="#99CFFF"/>
</linearGradient>
<linearGradient id="paint27_linear_914_429" x1="161.325" y1="126.08" x2="180.065" y2="138.76" gradientUnits="userSpaceOnUse">
<stop stop-color="#FCFDFF" stop-opacity="0"/>
<stop offset="0.807292" stop-color="#99CFFF"/>
</linearGradient>
<linearGradient id="paint28_linear_914_429" x1="170.555" y1="94.5664" x2="221.208" y2="183.477" gradientUnits="userSpaceOnUse">
<stop stop-color="#E4F2FF"/>
<stop offset="0.3075" stop-color="#D7E6FD" stop-opacity="0.6923"/>
<stop offset="0.9993" stop-color="#BDCEFA" stop-opacity="0"/>
</linearGradient>
<linearGradient id="paint29_linear_914_429" x1="166.657" y1="106.903" x2="202.509" y2="168.307" gradientUnits="userSpaceOnUse">
<stop stop-color="#E4F2FF"/>
<stop offset="0.0555438" stop-color="#E1EFFF"/>
<stop offset="0.6478" stop-color="#C7D7FB"/>
<stop offset="0.9993" stop-color="#BDCEFA"/>
</linearGradient>
<linearGradient id="paint30_linear_914_429" x1="176.333" y1="101.254" x2="212.186" y2="162.657" gradientUnits="userSpaceOnUse">
<stop stop-color="#E4F2FF"/>
<stop offset="0.0555438" stop-color="#E1EFFF"/>
<stop offset="0.6478" stop-color="#C7D7FB"/>
<stop offset="0.9993" stop-color="#BDCEFA"/>
</linearGradient>
<linearGradient id="paint31_linear_914_429" x1="80.3549" y1="48.1558" x2="136.45" y2="108.049" gradientUnits="userSpaceOnUse">
<stop stop-color="#E4F2FF"/>
<stop offset="0.3075" stop-color="#D7E6FD" stop-opacity="0.6923"/>
<stop offset="0.9993" stop-color="white" stop-opacity="0.66"/>
</linearGradient>
<linearGradient id="paint32_linear_914_429" x1="73.7018" y1="65.488" x2="128.489" y2="113.766" gradientUnits="userSpaceOnUse">
<stop stop-color="#E4F2FF"/>
<stop offset="0.0555438" stop-color="#E1EFFF"/>
<stop offset="0.6478" stop-color="#C7D7FB"/>
<stop offset="0.9993" stop-color="#BDCEFA"/>
</linearGradient>
<linearGradient id="paint33_linear_914_429" x1="76.9119" y1="61.8447" x2="131.699" y2="110.123" gradientUnits="userSpaceOnUse">
<stop stop-color="#E4F2FF"/>
<stop offset="0.0555438" stop-color="#E1EFFF"/>
<stop offset="0.6478" stop-color="#C7D7FB"/>
<stop offset="0.9993" stop-color="#BDCEFA"/>
</linearGradient>
<linearGradient id="paint34_linear_914_429" x1="85.323" y1="52.2991" x2="140.11" y2="100.577" gradientUnits="userSpaceOnUse">
<stop stop-color="#E4F2FF"/>
<stop offset="0.0555438" stop-color="#E1EFFF"/>
<stop offset="0.6478" stop-color="#C7D7FB"/>
<stop offset="0.9993" stop-color="#BDCEFA"/>
</linearGradient>
<linearGradient id="paint35_linear_914_429" x1="83.1167" y1="54.8034" x2="137.904" y2="103.081" gradientUnits="userSpaceOnUse">
<stop stop-color="#E4F2FF"/>
<stop offset="0.0555438" stop-color="#E1EFFF"/>
<stop offset="0.6478" stop-color="#C7D7FB"/>
<stop offset="0.9993" stop-color="#BDCEFA"/>
</linearGradient>
<linearGradient id="paint36_linear_914_429" x1="80.9103" y1="57.3071" x2="135.698" y2="105.585" gradientUnits="userSpaceOnUse">
<stop stop-color="#E4F2FF"/>
<stop offset="0.0555438" stop-color="#E1EFFF"/>
<stop offset="0.6478" stop-color="#C7D7FB"/>
<stop offset="0.9993" stop-color="#BDCEFA"/>
</linearGradient>
<linearGradient id="paint37_linear_914_429" x1="206.614" y1="231.115" x2="262.148" y2="342.83" gradientUnits="userSpaceOnUse">
<stop stop-color="#E4F2FF"/>
<stop offset="0.0555438" stop-color="#E1EFFF"/>
<stop offset="0.6478" stop-color="#C7D7FB"/>
<stop offset="0.9993" stop-color="#BDCEFA"/>
</linearGradient>
<linearGradient id="paint38_linear_914_429" x1="213.346" y1="209.476" x2="263.628" y2="280.564" gradientUnits="userSpaceOnUse">
<stop stop-color="#E4F2FF"/>
<stop offset="0.0555438" stop-color="#E1EFFF"/>
<stop offset="0.6478" stop-color="#C7D7FB"/>
<stop offset="0.9993" stop-color="#BDCEFA"/>
</linearGradient>
<linearGradient id="paint39_linear_914_429" x1="35.025" y1="188.841" x2="47.8221" y2="183.857" gradientUnits="userSpaceOnUse">
<stop stop-color="#E8E9FF"/>
<stop offset="0.9996" stop-color="#C0C0F6"/>
</linearGradient>
</defs>
</svg>
